<?xml version="1.0" encoding="utf-8"?>
<!-- Generator: Adobe Illustrator 26.5.0, SVG Export Plug-In . SVG Version: 6.00 Build 0)  -->
<svg version="1.1" id="Layer_1" xmlns="http://www.w3.org/2000/svg" xmlns:xlink="http://www.w3.org/1999/xlink" x="0px" y="0px"
	 viewBox="0 0 164.03 131.27" style="enable-background:new 0 0 164.03 131.27;" xml:space="preserve">
<style type="text/css">
	.st0{fill:#D1D7E0;}
	.st1{fill:#802BB1;}
</style>
<g>
	<polygon class="st0" points="52.4,112.66 74.57,125.54 74.57,98.22 52.4,85.35 	"/>
	<polygon class="st0" points="5.42,85.41 27.61,98.28 27.61,70.97 5.42,58.09 	"/>
	<polygon class="st0" points="27.61,69.58 27.61,48.07 6.16,57.12 	"/>
	<polygon class="st0" points="28.82,98.99 51.19,111.98 51.19,84.65 28.82,71.66 	"/>
	<polygon class="st0" points="134.75,49.93 131.1,51.49 131.1,73.62 156.84,62.76 	"/>
	<polygon class="st0" points="131.14,102.32 157.59,91.16 157.59,63.75 131.14,74.91 	"/>
	<polygon class="st0" points="79.41,73.31 53.14,84.39 75.22,97.2 101.5,86.12 	"/>
	<polygon class="st0" points="103.45,114.01 129.94,102.81 129.94,75.42 103.45,86.6 	"/>
	<polygon class="st0" points="75.78,125.68 102.24,114.52 102.24,87.11 75.78,98.27 	"/>
</g>
<g>
	<polygon class="st1" points="79.29,42.6 83.12,40.98 83.12,19.05 57.42,29.9 	"/>
	<polygon class="st1" points="33.07,17.17 33.07,38.66 54.52,29.6 	"/>
	<polygon class="st1" points="28.82,47.16 28.82,47.16 28.82,70.27 51.19,83.26 51.19,55.41 28.82,42.43 	"/>
	<polygon class="st1" points="52.4,83.4 78.84,72.24 78.84,44.3 52.4,55.46 	"/>
	<polygon class="st1" points="55.82,30.36 32.7,40.12 32.7,40.12 29.56,41.46 51.84,54.39 78.1,43.31 	"/>
	<polygon class="st1" points="82.38,18.05 60.1,5.13 33.82,16.21 56.12,29.14 	"/>
	<polygon class="st1" points="84.32,19.14 84.32,40.47 105.59,31.5 	"/>
	<polygon class="st1" points="133.44,19.93 111.17,7 84.91,18.09 107.18,31.03 	"/>
	<path class="st1" d="M131.1,50l3.09-1.31V20.92L108.47,31.8l22.33,12.97c0.02,0.01,0.04,0.03,0.06,0.05c0,0,0.01,0,0.01,0.01
		c0.02,0.01,0.04,0.02,0.05,0.04c0.01,0.01,0.02,0.03,0.03,0.04c0.03,0.03,0.04,0.06,0.06,0.1c0.01,0.01,0.02,0.02,0.02,0.04
		c0,0.01,0.01,0.01,0.02,0.02c0.01,0.01,0,0.03,0.01,0.04c0.01,0.04,0.02,0.08,0.02,0.12c0,0.02,0.01,0.05,0.01,0.07V50z"/>
	<path class="st1" d="M103.45,57.36v27.93l26.45-11.16V51.09c0-0.02,0.01-0.04,0.01-0.06c0-0.01,0-0.02,0.01-0.03
		c0-0.03-0.02-0.06-0.02-0.09V46.2L103.45,57.36z"/>
	<polygon class="st1" points="80.05,72.29 102.24,85.15 102.24,57.31 80.05,44.44 	"/>
	<polygon class="st1" points="106.87,32.27 83.95,41.94 83.95,41.94 80.59,43.36 102.89,56.29 129.15,45.2 	"/>
</g>
<path d="M158.75,62.65c0-0.01,0-0.03-0.01-0.04c0-0.01-0.01-0.02-0.02-0.03c-0.01-0.01-0.02-0.02-0.02-0.04
	c-0.02-0.03-0.04-0.07-0.06-0.1c-0.01-0.01-0.02-0.03-0.03-0.04c-0.02-0.02-0.04-0.03-0.06-0.04c0,0,0,0,0,0
	c-0.02-0.02-0.03-0.04-0.06-0.05l-23.1-13.41v-28.9c0-0.02-0.01-0.05-0.01-0.07c-0.01-0.04-0.01-0.08-0.02-0.12
	c0-0.01,0-0.03-0.01-0.04c-0.01-0.01-0.02-0.02-0.03-0.04c0-0.01-0.01-0.02-0.02-0.02c-0.02-0.03-0.04-0.07-0.06-0.1
	c-0.01-0.01-0.02-0.03-0.03-0.04c-0.02-0.02-0.05-0.03-0.07-0.05c-0.02-0.01-0.03-0.03-0.05-0.05L111.51,5.81
	c-0.01-0.01-0.03-0.01-0.04-0.01c-0.04-0.02-0.08-0.03-0.12-0.04c-0.04-0.01-0.07-0.02-0.11-0.02c-0.04,0-0.07,0-0.11,0.01
	c-0.04,0.01-0.09,0.01-0.13,0.03c-0.01,0-0.02,0-0.04,0.01L83.56,17.34L60.44,3.93c-0.01-0.01-0.03-0.01-0.04-0.01
	c-0.04-0.02-0.07-0.03-0.11-0.04c-0.04-0.01-0.08-0.02-0.12-0.02c-0.03,0-0.06,0-0.09,0.01c-0.05,0-0.09,0.01-0.14,0.03
	c-0.01,0-0.02,0-0.04,0.01L32.23,15.57c0,0,0,0,0,0c-0.02,0.01-0.04,0.03-0.06,0.04c-0.04,0.02-0.07,0.04-0.1,0.07
	c-0.01,0.01-0.03,0.02-0.04,0.03c-0.02,0.02-0.03,0.05-0.05,0.07c-0.01,0.02-0.03,0.03-0.05,0.05c-0.01,0.01-0.01,0.02-0.01,0.03
	c-0.01,0.01-0.02,0.02-0.02,0.04c-0.01,0.03-0.01,0.06-0.02,0.09c-0.01,0.04-0.02,0.07-0.02,0.11c0,0.01-0.01,0.02-0.01,0.04v23.04
	l-3.88,1.66c0,0,0,0,0,0l0,0c-0.01,0-0.02,0.01-0.03,0.02c-0.01,0.01-0.02,0.01-0.03,0.02c-0.03,0.02-0.07,0.04-0.1,0.07
	c-0.01,0.01-0.03,0.02-0.04,0.03c-0.02,0.02-0.03,0.05-0.05,0.07c-0.01,0.02-0.03,0.03-0.04,0.05c-0.01,0.01-0.01,0.02-0.01,0.03
	c-0.01,0.01-0.02,0.02-0.02,0.04c-0.01,0.03-0.01,0.05-0.02,0.08c-0.01,0.04-0.02,0.07-0.02,0.11c0,0.01-0.01,0.02-0.01,0.04v5.38
	L4.58,56.48c0,0,0,0,0,0c-0.02,0.01-0.04,0.03-0.06,0.04c-0.04,0.02-0.07,0.04-0.1,0.07C4.41,56.6,4.4,56.6,4.39,56.61
	c-0.02,0.02-0.03,0.05-0.05,0.07c-0.01,0.02-0.03,0.03-0.05,0.05c-0.01,0.01-0.01,0.02-0.01,0.04c-0.01,0.01-0.02,0.02-0.02,0.04
	c-0.01,0.03-0.01,0.06-0.02,0.08C4.23,56.93,4.22,56.96,4.22,57c0,0.01-0.01,0.03-0.01,0.04v28.72c0,0.03,0.01,0.05,0.01,0.07
	c0.01,0.04,0.01,0.08,0.03,0.12c0.01,0.04,0.03,0.07,0.05,0.1c0.02,0.03,0.04,0.07,0.07,0.1c0.03,0.03,0.06,0.06,0.09,0.08
	c0.02,0.02,0.03,0.04,0.06,0.05l23.4,13.56c0.01,0.01,0.02,0,0.03,0.01c0.02,0.01,0.04,0.02,0.06,0.03
	c0.03,0.03,0.06,0.06,0.09,0.08l23.2,13.46c0.04,0.02,0.08,0.02,0.12,0.03c0.01,0.01,0.02,0.01,0.03,0.02
	c0.02,0.02,0.03,0.04,0.06,0.05l23.38,13.58c0.01,0.01,0.02,0,0.03,0.01c0.08,0.04,0.17,0.07,0.27,0.07c0.08,0,0.16-0.01,0.23-0.05
	l27.67-11.67c0,0,0,0,0,0c0,0,0,0,0,0c0,0,0,0,0,0l27.61-11.67c0.03-0.01,0.05,0,0.08-0.02l27.65-11.67c0,0,0,0,0,0
	c0.07-0.03,0.14-0.08,0.19-0.13c0.03-0.03,0.05-0.07,0.07-0.1c0.02-0.03,0.05-0.06,0.06-0.09c0.03-0.07,0.05-0.15,0.05-0.23V62.84
	c0-0.02-0.01-0.05-0.01-0.07C158.77,62.73,158.77,62.69,158.75,62.65z M27.61,98.28L5.42,85.41V58.09l22.19,12.88V98.28z
	 M27.61,69.58L6.16,57.12l21.45-9.05V69.58z M111.17,7l22.28,12.93l-26.26,11.1L84.91,18.09L111.17,7z M84.32,19.14l21.27,12.36
	l-21.27,8.97V19.14z M60.1,5.13l22.28,12.92L56.12,29.14l-22.3-12.92L60.1,5.13z M83.12,19.05v21.93l-3.83,1.62L57.42,29.9
	L83.12,19.05z M33.07,17.17L54.52,29.6l-21.45,9.05V17.17z M51.19,111.98L28.82,98.99V71.66l22.37,12.99V111.98z M51.19,83.26
	L28.82,70.27V47.16c0,0,0,0,0,0v-4.74l22.37,12.98V83.26z M29.56,41.46l3.14-1.34c0,0,0,0,0,0l23.12-9.76L78.1,43.31L51.84,54.39
	L29.56,41.46z M78.84,44.3v27.93L52.4,83.4V55.46L78.84,44.3z M74.57,125.54L52.4,112.66V85.35l22.17,12.86V125.54z M75.22,97.2
	L53.14,84.39l26.26-11.08l22.09,12.81L75.22,97.2z M102.24,114.52l-26.46,11.16V98.27l26.46-11.16V114.52z M102.24,85.15
	L80.05,72.29V44.44l22.19,12.87V85.15z M102.89,56.29l-22.3-12.93l3.36-1.42c0,0,0,0,0,0l22.92-9.67l22.28,12.93L102.89,56.29z
	 M129.91,51c0,0.01,0,0.02-0.01,0.03c0,0.02-0.01,0.04-0.01,0.06v23.04l-26.45,11.16V57.36l26.45-11.16v4.71
	C129.89,50.94,129.91,50.97,129.91,51z M129.94,102.81l-26.49,11.2V86.6l26.49-11.18V102.81z M131.06,45.1c0-0.01,0-0.03-0.01-0.04
	c0-0.01-0.01-0.01-0.02-0.02c-0.01-0.01-0.02-0.02-0.02-0.04c-0.02-0.03-0.04-0.07-0.06-0.1c-0.01-0.01-0.02-0.03-0.03-0.04
	c-0.02-0.02-0.04-0.02-0.05-0.04c0,0-0.01,0-0.01-0.01c-0.02-0.02-0.03-0.04-0.06-0.05L108.47,31.8l25.72-10.87v27.77L131.1,50
	v-4.71c0-0.02-0.01-0.05-0.01-0.07C131.08,45.17,131.08,45.13,131.06,45.1z M131.1,51.49l3.65-1.56l22.09,12.83L131.1,73.62V51.49z
	 M157.59,91.16l-26.44,11.16V74.91l26.44-11.16V91.16z"/>
</svg>
