<?xml version="1.0" encoding="utf-8"?>
<!-- Generator: Adobe Illustrator 26.5.0, SVG Export Plug-In . SVG Version: 6.00 Build 0)  -->
<svg version="1.1" id="Layer_1" xmlns="http://www.w3.org/2000/svg" xmlns:xlink="http://www.w3.org/1999/xlink" x="0px" y="0px"
	 viewBox="0 0 39 37" style="enable-background:new 0 0 39 37;" xml:space="preserve">
<style type="text/css">
	.st0{fill-rule:evenodd;clip-rule:evenodd;fill:#181616;}
</style>
<path class="st0" d="M19.5,0.5C9,0.5,0.5,8.8,0.5,19c0,8.2,5.4,15.1,13,17.5c0.9,0.2,1.3-0.4,1.3-0.9c0-0.4,0-1.6,0-3.1
	C9.5,33.5,8.4,30,8.4,30c-0.9-2.1-2.1-2.7-2.1-2.7c-1.7-1.1,0.1-1.1,0.1-1.1c1.9,0.1,2.9,1.9,2.9,1.9c1.7,2.8,4.4,2,5.5,1.5
	c0.2-1.2,0.7-2,1.2-2.5c-4.2-0.5-8.7-2.1-8.7-9.1c0-2,0.7-3.7,2-5c-0.2-0.5-0.9-2.3,0.2-4.9c0,0,1.6-0.5,5.2,1.9
	c1.5-0.4,3.1-0.6,4.8-0.6c1.6,0,3.2,0.2,4.8,0.6c3.6-2.4,5.2-1.9,5.2-1.9c1,2.5,0.4,4.4,0.2,4.9c1.2,1.3,1.9,2.9,1.9,5
	c0,7.1-4.4,8.6-8.7,9.1c0.7,0.6,1.3,1.7,1.3,3.4c0,2.5,0,4.5,0,5.1c0,0.5,0.3,1.1,1.3,0.9c7.5-2.4,13-9.4,13-17.5
	C38.5,8.8,30,0.5,19.5,0.5z"/>
</svg>
