<?xml version="1.0" encoding="utf-8"?>
<!-- Generator: Adobe Illustrator 26.5.0, SVG Export Plug-In . SVG Version: 6.00 Build 0)  -->
<svg version="1.2" baseProfile="tiny" id="Layer_1" xmlns="http://www.w3.org/2000/svg" xmlns:xlink="http://www.w3.org/1999/xlink"
	 x="0px" y="0px" viewBox="0 0 39 37" overflow="visible" xml:space="preserve">
<path fill-rule="evenodd" fill="#181616" d="M19.68,2.81c-8.99,0-16.29,7.29-16.29,16.29c0,7.2,4.67,13.3,11.14,15.46
	c0.81,0.15,1.11-0.35,1.11-0.79c0-0.39-0.01-1.41-0.02-2.77c-4.53,0.98-5.49-2.18-5.49-2.18c-0.74-1.88-1.81-2.38-1.81-2.38
	c-1.48-1.01,0.11-0.99,0.11-0.99c1.63,0.12,2.5,1.68,2.5,1.68c1.45,2.49,3.81,1.77,4.74,1.35c0.15-1.05,0.57-1.77,1.03-2.18
	c-3.62-0.41-7.42-1.81-7.42-8.05c0-1.78,0.63-3.23,1.68-4.37c-0.17-0.41-0.73-2.07,0.16-4.31c0,0,1.37-0.44,4.48,1.67
	c1.3-0.36,2.69-0.54,4.08-0.55c1.38,0.01,2.78,0.19,4.08,0.55c3.11-2.11,4.48-1.67,4.48-1.67c0.89,2.24,0.33,3.9,0.16,4.31
	c1.04,1.14,1.67,2.59,1.67,4.37c0,6.26-3.81,7.63-7.44,8.04c0.58,0.5,1.11,1.5,1.11,3.02c0,2.18-0.02,3.93-0.02,4.47
	c0,0.44,0.29,0.94,1.12,0.78c6.47-2.16,11.13-8.26,11.13-15.45C35.97,10.1,28.67,2.81,19.68,2.81z"/>
</svg>
