<?xml version="1.0" encoding="utf-8"?>
<!-- Generator: Adobe Illustrator 26.5.0, SVG Export Plug-In . SVG Version: 6.00 Build 0)  -->
<svg version="1.1" id="Layer_1" xmlns="http://www.w3.org/2000/svg" xmlns:xlink="http://www.w3.org/1999/xlink" x="0px" y="0px"
	 viewBox="0 0 332.61 368.75" style="enable-background:new 0 0 332.61 368.75;" xml:space="preserve">
<style type="text/css">
	.st0{fill:#030405;}
	.st1{fill:#003F6F;}
	.st2{fill:#FEFEFE;}
</style>
<path class="st0" d="M301.43,12.35c1.38,4.48,3.73,8.56,5.44,12.92c6.7,17.08,10.81,34.8,13.31,52.93
	c2.28,16.48,2.9,33.03,1.99,49.65c-1.78,32.53-9.64,63.52-23.4,93.03c-13.1,28.09-30.83,52.99-52.04,75.51
	c-23.25,24.67-49.84,45.21-78.29,63.49c-1.03,0.67-1.74,0.84-2.92,0.08c-22.8-14.69-44.52-30.77-64.24-49.43
	c-34.3-32.46-60.96-69.99-76.41-114.95c-8.06-23.45-12.5-47.57-13.39-72.36c-1.15-31.73,3.13-62.64,13.5-92.68
	c1.9-5.5,4.42-10.74,6.72-16.07c0.28-0.66,0.96-1.26,0.53-2.11C121.96,12.35,211.69,12.35,301.43,12.35z M167.03,16.2
	c0,0,0-0.01,0-0.01c-43.35,0-86.7,0-130.04,0c-0.16,0-0.32,0.02-0.48,0c-1.01-0.11-1.63,0.29-2.03,1.25
	c-1.39,3.31-2.95,6.54-4.26,9.88c-5.77,14.8-9.48,30.15-12.04,45.81c-1.81,11.08-2.77,22.24-3.16,33.43
	c-0.31,8.91,0.09,17.82,0.79,26.74c0.65,8.25,1.62,16.45,3.1,24.56c4.89,26.66,13.84,51.91,26.84,75.74
	c12.26,22.48,27.54,42.74,45.13,61.27c9.68,10.19,20.05,19.66,30.88,28.65c13.77,11.43,28.33,21.75,43.26,31.58
	c1.37,0.9,2.41,1.03,3.86,0.02c4.9-3.44,9.92-6.7,14.86-10.08c15.52-10.59,30.14-22.32,43.89-35.08
	c11.54-10.7,22.35-22.12,32.24-34.4c11.9-14.77,22.37-30.46,31.06-47.31c9.75-18.92,17-38.76,21.75-59.51
	c3.21-14.05,5.28-28.28,5.87-42.65c0.48-11.7,0.33-23.41-0.67-35.13c-0.75-8.79-2.16-17.46-3.72-26.08
	c-2.89-16.01-7.39-31.6-14.33-46.41c-0.8-1.7-1.56-2.32-3.48-2.32C253.25,16.21,210.14,16.2,167.03,16.2z"/>
<path class="st1" d="M167.03,16.2c43.11,0,86.22,0.01,129.32-0.05c1.92,0,2.68,0.62,3.48,2.32c6.93,14.81,11.44,30.4,14.33,46.41
	c1.56,8.63,2.97,17.29,3.72,26.08c0.99,11.72,1.14,23.44,0.67,35.13c-0.58,14.37-2.66,28.6-5.87,42.65
	c-4.75,20.75-11.99,40.59-21.75,59.51c-8.69,16.86-19.16,32.54-31.06,47.31c-9.89,12.28-20.7,23.69-32.24,34.4
	c-13.75,12.76-28.38,24.49-43.89,35.08c-4.94,3.37-9.97,6.63-14.86,10.08c-1.44,1.01-2.49,0.88-3.86-0.02
	c-14.93-9.83-29.49-20.15-43.26-31.58c-10.83-8.99-21.2-18.46-30.88-28.65c-17.59-18.53-32.87-38.79-45.13-61.27
	c-13-23.83-21.95-49.08-26.84-75.74c-1.49-8.11-2.45-16.31-3.1-24.56c-0.7-8.91-1.1-17.82-0.79-26.74
	c0.39-11.19,1.35-22.35,3.16-33.43c2.55-15.66,6.26-31,12.04-45.81c1.3-3.34,2.87-6.57,4.26-9.88c0.4-0.96,1.02-1.37,2.03-1.25
	c0.16,0.02,0.32,0,0.48,0c43.35,0,86.7,0,130.04,0C167.03,16.19,167.03,16.19,167.03,16.2z M166.84,30.49c0,0,0,0.01,0,0.01
	c-38.54,0-77.08,0-115.62,0c-7.09,0-7.12-0.01-9.42,6.79C37,51.47,33.54,65.95,31.59,80.81c-1.04,7.97-1.99,15.96-2.1,23.96
	c-0.14,9.53-0.65,19.06,0.61,28.63c1.04,7.86,1.7,15.79,3.17,23.58c4.81,25.46,13.64,49.48,26.28,72.13
	c11.22,20.11,25.01,38.3,40.73,55.04c7.98,8.49,16.47,16.47,25.33,24.07c12.61,10.82,25.89,20.72,39.67,29.98
	c1.05,0.71,1.82,0.85,2.96,0.09c17.77-11.82,34.65-24.79,50.25-39.35c10.39-9.7,20.31-19.87,29.27-30.95
	c10.87-13.43,20.58-27.61,28.72-42.85c10.14-19,17.68-38.97,22.41-60c2.9-12.89,4.83-25.94,5.33-39.11
	c0.68-17.84-0.03-35.64-3.19-53.31c-2.46-13.75-5.85-27.21-10.74-40.29c-0.51-1.36-1.21-1.98-2.79-1.98
	C247.28,30.5,207.06,30.49,166.84,30.49z"/>
<path class="st0" d="M166.84,30.49c40.22,0,80.44,0.01,120.66-0.03c1.58,0,2.29,0.63,2.79,1.98c4.89,13.08,8.28,26.54,10.74,40.29
	c3.16,17.67,3.87,35.46,3.19,53.31c-0.5,13.17-2.43,26.22-5.33,39.11c-4.73,21.03-12.27,41-22.41,60
	c-8.13,15.24-17.85,29.43-28.72,42.85c-8.96,11.07-18.88,21.25-29.27,30.95c-15.6,14.56-32.48,27.54-50.25,39.35
	c-1.14,0.76-1.91,0.62-2.96-0.09c-13.78-9.26-27.06-19.16-39.67-29.98c-8.86-7.6-17.35-15.58-25.33-24.07
	c-15.73-16.74-29.52-34.93-40.73-55.04c-12.64-22.66-21.46-46.67-26.28-72.13c-1.47-7.79-2.13-15.72-3.17-23.58
	c-1.26-9.57-0.75-19.1-0.61-28.63c0.11-8,1.06-15.99,2.1-23.96c1.95-14.87,5.41-29.34,10.2-43.52c2.3-6.81,2.33-6.79,9.42-6.79
	c38.54,0,77.08,0,115.62,0C166.84,30.49,166.84,30.49,166.84,30.49z M167.03,45.79c-36.46,0-72.93,0.02-109.39-0.05
	c-1.95,0-2.76,0.55-3.3,2.4c-4.49,15.17-7.42,30.62-8.79,46.38c-1.62,18.61-0.91,37.13,2.17,55.53
	c4.75,28.46,14.92,54.93,29.99,79.51c22.5,36.71,53.07,65.6,87.99,90.26c1.11,0.79,1.76,0.44,2.69-0.21
	c24.62-17.29,47.19-36.87,66.34-60.15c38.66-46.99,57.87-100.49,53.79-161.68c-1.12-16.83-4.13-33.3-8.98-49.47
	c-0.65-2.16-1.56-2.57-3.6-2.56C239.63,45.81,203.33,45.79,167.03,45.79z M167.11,334.65c3.95-2.77,7.47-5.2,10.95-7.67
	c11.91-8.45,23.04-17.85,34.22-27.23c4.59-3.85,5.78-7.96,5.17-13.29c-0.06-0.53,0.26-1.25-0.31-1.54
	c-0.76-0.39-1.07,0.47-1.51,0.85c-1.33,1.14-2.66,2.29-3.93,3.5c-6.87,6.55-14.08,12.7-21.48,18.65c-7.09,5.7-14.47,11-21.86,16.29
	c-0.59,0.42-1.26,0.73-1.25,1.6C167.12,328.56,167.11,331.32,167.11,334.65z M148.11,34.4C148.11,34.4,148.11,34.4,148.11,34.4
	c-4.56,0.01-9.11,0.01-13.67,0.01c-5.34,0-5.24,0-5.33,5.25c-0.03,1.97,0.65,2.38,2.47,2.37c9.91-0.08,19.83-0.03,29.74-0.03
	c5.39,0,5.32,0,5.31-5.47c0-1.7-0.55-2.18-2.21-2.16C158.98,34.45,153.54,34.4,148.11,34.4z"/>
<path class="st2" d="M167.03,45.79c36.3,0,72.61,0.02,108.91-0.05c2.04,0,2.96,0.41,3.6,2.56c4.85,16.16,7.85,32.64,8.98,49.47
	c4.08,61.2-15.14,114.69-53.79,161.68c-19.15,23.28-41.71,42.86-66.34,60.15c-0.93,0.65-1.58,0.99-2.69,0.21
	c-34.92-24.65-65.49-53.54-87.99-90.26c-15.07-24.58-25.24-51.05-29.99-79.51c-3.07-18.4-3.79-36.92-2.17-55.53
	c1.37-15.77,4.29-31.21,8.79-46.38c0.55-1.85,1.35-2.4,3.3-2.4C94.1,45.81,130.56,45.79,167.03,45.79z M252.05,177.19
	c-6.86-5.33-13.72-10.66-20.57-15.99c-1.76-1.96-3.97-3.38-6.05-4.95c-5.38-4.03-10.43-8.49-16.02-12.24
	c-6.75-5.25-13.51-10.49-20.26-15.74c-6.91-5.94-14.3-11.27-21.45-16.91c-0.41-0.32-0.8-0.52-1.2,0
	c-6.86,5.33-13.72,10.66-20.57,15.99c-2.03,0.97-3.62,2.55-5.34,3.92c-5.57,4.44-11.43,8.52-16.74,13.28
	c-6.87,5.32-13.75,10.64-20.62,15.95c-1.37,0.53-2.35,1.62-3.46,2.5c-6.35,5.04-12.98,9.74-19.11,15.08
	c-5.42,4.17-10.82,8.37-16.27,12.5c-0.87,0.66-0.94,1.22-0.55,2.19c4.71,11.74,10.24,23.07,16.92,33.83
	c3.73,6.64,8.18,12.82,12.62,18.99c0.42,0.58,0.77,1.2,1.65,0.44c2.7-2.32,5.76-4.19,8.3-6.72c6.87-5.34,13.74-10.68,20.61-16.02
	c1.81-0.86,3.23-2.27,4.77-3.49c5.76-4.58,11.81-8.8,17.32-13.7c6.87-5.33,13.74-10.65,20.61-15.98c0.82,0.18,1.36,0.78,1.99,1.26
	c6.68,5.14,13.36,10.27,20.04,15.41c6.71,5.19,13.42,10.38,20.14,15.58c7.32,6.12,14.88,11.95,22.58,17.58
	c2.36,1.87,4.75,3.71,7.08,5.62c0.9,0.74,1.42,0.87,2.21-0.24c4.01-5.61,8.04-11.2,11.49-17.18c7.3-11.24,13.05-23.27,18.06-35.67
	c0.31-0.77,0.21-1.31-0.5-1.84C263.78,186.2,258.17,181.36,252.05,177.19z M89.75,123.48c0.09,0.1,0.18,0.19,0.28,0.28
	c-3.04,3.88-7.21,6.2-12.01,8.19c1.91,0.9,3.46,1.55,4.92,2.35c1.75,0.96,3.2,0.7,4.82-0.46c2.17-1.55,4.14-3.34,6.46-5.24
	c0,1.66,0,2.92,0,4.19c0,4.59,0,4.54,4.51,4.29c1.3-0.07,1.6-0.56,1.55-1.75c-0.08-2.12-0.02-4.24-0.02-6.85
	c2.56,2.37,4.8,4.36,7.39,5.9c0.68,0.4,1.32,0.94,2.21,0.56c2.14-0.89,4.35-1.63,6.45-3.17c-4.86-1.72-8.77-4.36-12.45-8.56
	c5.68,1.05,10.41,2.59,14.56,5.61c0.92,0.67,1.53,0.83,2.42,0.01c3.91-3.58,4.37-2.7-0.31-5.83c-5.41-3.62-11.63-5.15-17.96-6.27
	c-0.75-0.13-1.67,0.06-2.19-0.67c-0.72-1.03,0.11-6.8,1.07-7.68c4.16-3.81,9-4.16,14.11-2.56c6.55,2.05,12.45,0.6,17.99-3.06
	c0.65-0.43,1.33-0.8,1.29-1.81c-0.1-2.14,0.15-4.31-0.5-6.56c-3.84,3.38-7.76,6.44-13.58,6.33c2.64-4.11,5.86-7.08,9.87-9.2
	c3.13-1.65,3.15-1.61,1.91-4.98c-0.06-0.15-0.1-0.3-0.14-0.46c-0.35-1.21-1.02-1.84-2.22-0.96c-3.03,2.22-6.03,0.73-9.23,0.08
	c1.53-2.69,3.65-4.54,6.1-6.07c0.41-0.26,1.38-0.42,0.98-1.04c-0.96-1.46-1.95-3.05-3.33-4.03c-1.05-0.74-1.97,0.9-3,1.37
	c-0.93,0.43-1.31,1.89-2.81,1.28c-1.35-0.55-2.81-0.85-4.33-1.29c0.64-1.12,1.24-2.06,1.72-3.06c2.26-4.68,2.93-3.51-2.05-6.34
	c-1.26-0.72-1.53-0.17-2.01,0.85c-0.84,1.8-1.84,3.53-2.83,5.25c-0.28,0.49-0.53,1.37-1.38,0.96c-1.97-0.96-4.14-0.91-6.22-1.23
	c-0.03-0.95,0.62-1.4,1.05-1.93c1.93-2.39,4.52-3.97,7.2-5.57c-6.98-2.89-7.61-2.75-12.79,2.71c-5.19-5.45-5.89-5.61-12.78-2.71
	c3.24,1.98,6.46,3.89,8.45,7.49c-1.38,0.15-2.55,0.21-3.71,0.41c-3.88,0.67-3.88,0.69-5.72-2.8c-0.11-0.21-0.23-0.42-0.34-0.63
	c-1.84-3.64-1.79-3.57-5.44-1.43c-1.31,0.77-1.38,1.49-0.73,2.66c0.99,1.78,1.91,3.59,2.88,5.42c-1.38,0.39-2.66,0.61-3.82,1.11
	c-1.08,0.46-1.7,0.09-2.54-0.53c-4.14-3.05-2.94-3.03-6.28,0.85c-0.95,1.1-0.99,1.68,0.39,2.43c2.47,1.34,4.45,3.26,5.95,5.87
	c-3.21,0.64-6.21,2.14-9.25-0.07c-1.15-0.84-1.87-0.32-2.22,0.95c-0.19,0.69-0.37,1.4-0.69,2.04c-0.8,1.59-0.27,2.25,1.34,2.94
	c4.58,1.94,8.08,5.21,11.01,9.69c-5.82,0.06-9.79-2.93-13.6-6.36c-0.6,2.19-0.42,4.27-0.5,6.33c-0.04,0.94,0.37,1.45,1.09,1.93
	c5.44,3.62,11.24,5.26,17.73,3.29c1.99-0.61,4.03-1.07,6.13-0.98c3.31,0.14,6.19,1.28,8.64,3.59c1.8,1.7,0.61,3.78,1,5.65
	c0.4,1.93-0.66,2.34-2.31,2.6c-6.75,1.09-13.27,2.9-18.99,6.85c-2.95,2.03-2.83,1.99-0.21,4.46c1.48,1.39,2.47,1.43,4.18,0.23
	C80.72,125.61,85.1,124.1,89.75,123.48z M232.27,71.85c-1.45,0.16-2.57,0.22-3.66,0.41c-3.94,0.66-3.94,0.68-5.86-2.97
	c-0.11-0.21-0.22-0.43-0.33-0.64c-1.69-3.35-1.69-3.35-4.88-1.49c-0.21,0.12-0.41,0.26-0.62,0.36c-1.11,0.5-1.28,1.2-0.68,2.27
	c1.05,1.86,1.99,3.78,3.01,5.73c-0.73,0.17-1.48,0.23-2.12,0.52c-2.19,1.02-4.01,0.74-5.68-1.09c-1.39-1.53-2.7-1.22-3.74,0.54
	c-0.28,0.48-0.67,0.9-1.05,1.31c-0.97,1.05-1.17,1.77,0.42,2.6c2.43,1.27,4.32,3.21,5.81,5.74c-3.17,0.81-6.14,2.12-9.18,0
	c-0.42-0.29-1.17-0.77-1.54-0.36c-1.22,1.33-1.34,3.15-1.79,4.8c-0.32,1.2,0.98,1.05,1.59,1.33c4.59,2.12,8.16,5.33,11.13,9.79
	c-5.85,0.15-9.75-3.02-13.75-6.4c-0.09,1.15-0.17,1.86-0.21,2.58c-0.29,5.59-1.03,5.03,5.08,8.04c4.66,2.29,9.51,2.38,14.46,0.84
	c4.97-1.54,9.64-1.02,13.68,2.56c0.64,0.57,1.24,1.15,1.35,2.15c0.64,5.44,0.51,5.66-4.81,6.73c-0.24,0.05-0.47,0.08-0.71,0.13
	c-6.03,1.37-11.89,3.18-16.87,7.04c-0.54,0.42-1.58,0.95-1.31,1.47c0.77,1.51,2.31,2.37,3.6,3.44c1.05,0.87,1.55-0.34,2.17-0.74
	c4.12-2.68,8.59-4.32,14.06-5.22c-3.62,4.25-7.61,6.79-12.45,8.55c1.11,0.59,1.97,0.88,2.65,1.42c3.04,2.41,5.83,2.05,8.6-0.49
	c1.53-1.41,3.19-2.66,5.06-4.21c0,1.76,0,3.11,0,4.45c0,4.22,0,4.14,4.21,4.07c1.58-0.03,1.83-0.63,1.76-1.99
	c-0.1-2.03-0.03-4.07-0.03-6.71c2.02,2.68,4.27,4.18,6.47,5.74c0.94,0.67,1.98,1.28,3.22,0.74c2.09-0.91,4.17-1.85,6.62-2.94
	c-5-1.88-9.09-4.38-12.56-8.73c5.53,1.13,10.25,2.68,14.45,5.61c0.5,0.35,0.8,1.07,1.77,0.51c4.21-2.42,4.34-3.83,0.35-6.32
	c-1.42-0.88-2.91-1.66-4.43-2.35c-4.32-1.96-8.87-3.13-13.54-3.89c-0.76-0.12-1.69,0-2.22-0.65c-0.81-0.97,0.11-6.98,1.16-7.89
	c4.16-3.6,8.92-4.01,13.95-2.42c6.54,2.07,12.44,0.64,17.99-3.01c0.66-0.44,1.34-0.83,1.33-1.82c-0.04-2.11,0.05-4.23-0.34-6.42
	c-9.73,6.25-10.14,6.43-13.58,5.91c2.47-3.8,5.64-6.74,9.55-8.87c3.32-1.81,3.34-1.78,1.96-5.31c-0.06-0.15-0.1-0.3-0.14-0.46
	c-0.29-1.11-0.97-1.47-1.91-0.77c-3.09,2.28-6.18,0.9-9.41,0.1c1.52-2.62,3.63-4.49,6.1-6.01c0.42-0.26,1.37-0.45,0.98-1.03
	c-0.97-1.45-1.99-2.97-3.34-4.02c-1.04-0.8-1.82,0.82-2.79,1.19c-1.03,0.4-1.42,2.01-3,1.42c-1.38-0.52-2.84-0.84-4.37-1.28
	c0.64-1.09,1.22-2.03,1.75-3c2.29-4.19,2.12-4.53-2.24-6.51c-1.04-0.47-1.34-0.25-1.71,0.67c-0.79,2.01-1.83,3.89-3.03,5.69
	c-0.29,0.43-0.52,1.19-1.23,0.84c-2-1-4.24-0.92-6.55-1.35c2.18-3.47,5.25-5.54,8.65-7.46c-0.82-0.29-1.44-0.46-2.03-0.71
	c-4.01-1.64-7.58-1.63-10.08,2.6c-0.79,1.33-1.38,0.56-1.86-0.22c-2.22-3.6-5.3-4.13-9.01-2.63c-0.87,0.35-1.8,0.58-2.91,0.94
	C227.01,66.31,230.25,68.21,232.27,71.85z M184.16,230.28c0.7-1.24,1.34-2.24,1.86-3.3c2.31-4.77,2.62-3.43-2-6.2
	c-1.05-0.63-1.57-0.53-2.1,0.69c-0.83,1.89-1.9,3.68-2.92,5.48c-0.28,0.5-0.53,1.26-1.43,0.81c-1.93-0.96-4.1-0.91-6.36-1.29
	c2.11-3.42,5.15-5.47,8.41-7.34c-5.13-2.6-9.63-3-12.58,2.87c-4.72-5.56-6.99-6.03-12.84-2.83c3.3,1.86,6.41,3.88,8.37,7.33
	c-1.37,0.17-2.56,0.26-3.73,0.48c-3.75,0.68-3.75,0.7-5.6-2.68c-0.15-0.28-0.3-0.56-0.45-0.85c-1.79-3.51-1.75-3.44-5.26-1.43
	c-1.32,0.76-1.58,1.47-0.85,2.76c1,1.78,1.91,3.61,2.85,5.4c-1.35,0.38-2.6,0.66-3.8,1.09c-0.91,0.33-1.56,0.25-2.38-0.37
	c-3.76-2.87-3.79-2.83-6.58,0.91c-0.31,0.41-0.6,0.84-0.94,1.32c3.08,1.68,5.6,3.68,7.38,6.74c-3.26,0.75-6.32,2.19-9.41-0.12
	c-0.89-0.66-1.61-0.39-1.9,0.8c-0.19,0.77-0.47,1.53-0.82,2.24c-0.75,1.53-0.42,2.26,1.28,2.96c4.61,1.89,8.06,5.22,11.04,9.64
	c-5.85,0.14-9.75-2.98-13.73-6.42c-0.15,1.88-0.28,3.45-0.41,5.02c-0.14,1.81,0.45,3.07,2.15,4.07c5.44,3.19,11.07,4.41,17.22,2.46
	c2.95-0.94,5.94-1.19,8.98-0.35c4.55,1.25,6.11,3.42,6.38,7.81c0.16,2.59-0.73,3.26-3.15,3.64c-6.83,1.07-13.4,3.05-19.04,7.29
	c-0.85,0.64-2.37,1.26-0.96,2.67c1.27,1.27,2.54,3.43,4.67,2c3.51-2.35,7.31-3.81,11.31-4.93c0.82-0.23,1.62-0.58,2.74,0.05
	c-3.26,3.61-7.1,6.14-12.05,7.88c2.07,0.97,3.68,1.63,5.19,2.47c1.68,0.93,3.05,0.66,4.6-0.41c2.22-1.53,4.22-3.33,6.61-5.34
	c0,1.71,0,3.04,0,4.37c0,4.16,0,4.07,4.12,4.11c1.66,0.02,1.97-0.57,1.94-2.06c-0.03-2.07-0.29-4.18,0.2-6.43
	c2.3,2.39,4.67,4.28,7.28,5.86c0.6,0.36,1.15,0.86,1.98,0.52c2.15-0.9,4.38-1.64,6.53-3.18c-4.72-1.74-8.62-4.2-11.74-7.89
	c0.7-0.55,1.34-0.37,1.92-0.21c3.4,0.89,6.75,1.95,9.82,3.73c3.85,2.23,3.86,2.23,7.11-0.88c0.23-0.22,0.42-0.47,0.67-0.75
	c-1.68-1.77-3.7-3.03-5.82-4.13c-5.01-2.61-10.41-4-15.94-4.95c-0.66-0.11-1.5,0.07-1.96-0.59c-0.68-0.99,0.12-6.87,1.04-7.71
	c4.16-3.8,8.98-4.18,14.11-2.59c6.62,2.05,12.61,0.61,18.19-3.16c0.44-0.3,1.1-0.5,1.09-1.16c-0.04-2.31,0.32-4.67-0.53-7.01
	c-6.03,5.15-9.84,6.81-13.29,5.82c2.78-4.03,6.18-7.38,10.74-9.22c1.9-0.76,2.03-1.63,1.27-3.19c-0.28-0.57-0.44-1.2-0.61-1.81
	c-0.35-1.25-1.02-1.79-2.21-0.94c-3.08,2.23-6.07,0.73-9.24,0c1.88-3.09,4.45-5.07,7.44-6.79c-0.96-1.2-1.92-2.27-2.72-3.44
	c-0.84-1.23-1.75-1.34-2.69-0.3c-2.12,2.33-4.54,2.41-7.21,1.17C185.13,230.37,184.79,230.38,184.16,230.28z M164.08,85.55
	c-0.19-1.34-0.18-2.71-0.86-3.95c-1.24-2.27-4.2-3.22-6.9-2.19c-2.22,0.85-3.42,3.07-2.91,5.39c0.51,2.36,2.43,3.53,5.31,3.37
	c0.59-0.03,1.54-0.93,1.78,0.2c0.2,0.95-0.71,1.53-1.56,1.84c-0.87,0.32-1.83,0.26-2.53-0.28c-1.37-1.05-1.82-0.01-2.31,0.88
	c-0.74,1.36,0.64,1.42,1.27,1.7C160.05,94.59,164.16,91.27,164.08,85.55z M182.76,93.06c2.94-0.01,4.93-1.34,5.26-3.5
	c0.25-1.63-1.26-2.53-1.58-3.68c-0.27-0.95,1.6-2.37,0.98-4.04c-0.83-2.25-2.71-2.79-4.8-2.76c-2.02,0.04-3.77,0.71-4.5,2.86
	c-0.24,0.7-0.34,1.6,0.12,2.08c1.27,1.34,0.62,2.17-0.25,3.43c-1.06,1.54-0.55,3.22,0.95,4.43
	C180.05,92.78,181.38,93.02,182.76,93.06z M169.93,90.23c1.62-1.31,2.64-2.06,3.58-2.9c2.42-2.16,2.78-5.04,0.93-6.94
	c-1.94-1.98-5.84-1.76-7.76,0.44c-0.4,0.45-1.12,0.93-0.24,1.52c0.61,0.41,1.05,1.61,2.12,0.49c1.01-1.07,2.43-1.8,3.51-0.42
	c1.11,1.43-0.01,2.69-1.16,3.67c-1.52,1.3-3.03,2.6-4.62,3.81c-0.89,0.68-0.76,1.57-0.62,2.39c0.18,1.07,1.17,0.53,1.77,0.55
	c2.24,0.08,4.48,0.01,6.71,0.04c0.95,0.01,1.64,0.06,1.62-1.31c-0.02-1.3-0.63-1.4-1.63-1.36C172.98,90.27,171.8,90.23,169.93,90.23
	z M147.98,82.33c0,3.07,0.06,6.02-0.03,8.96c-0.04,1.27,0.37,1.61,1.61,1.62c1.25,0.01,1.43-0.5,1.41-1.56
	c-0.06-3.03-0.02-6.06-0.02-9.09c0-3.4-0.31-3.62-3.7-2.62c-0.46,0.13-0.92,0.28-1.38,0.4c-0.86,0.22-0.86,0.77-0.61,1.47
	c0.21,0.59,0.21,1.32,1.19,1.05C146.9,82.43,147.37,82.41,147.98,82.33z M155.66,71.11c0,4.54,0,4.54,4.66,4.5
	c0.32,0,0.64,0.01,0.96,0c0.46-0.02,0.98,0.09,0.99-0.66c0.02-0.71-0.27-1.01-0.98-0.99c-0.88,0.03-1.76,0-2.64,0
	c-0.62,0-1.08-0.16-1.1-0.92c-0.02-0.69,0.3-0.89,0.95-1.08c1.05-0.31,3.06,1.01,3-0.95c-0.04-1.38-1.97-0.4-3.02-0.66
	c-0.49-0.12-0.93-0.14-0.93-0.8c0-0.59,0.29-0.89,0.85-0.91c0.96-0.03,1.92-0.04,2.88-0.01c0.71,0.02,1-0.27,0.98-0.99
	c-0.02-0.67-0.41-0.77-0.94-0.76c-0.48,0.01-0.96,0-1.44,0C155.66,66.88,155.66,66.88,155.66,71.11z M166.77,66.76
	c-1.56,0.12-2.81,0.55-3.11,2.18c-0.3,1.64,0.55,2.54,2.08,2.92c0.31,0.08,0.61,0.19,0.9,0.3c0.62,0.24,1.65,0.26,1.34,1.26
	c-0.26,0.83-1.15,0.71-1.86,0.51c-0.45-0.13-0.88-0.36-1.29-0.59c-0.6-0.33-0.87,0.12-1.17,0.46c-0.28,0.31-0.41,0.62,0.09,0.94
	c1.5,0.94,3.09,1.34,4.76,0.67c1.02-0.41,1.59-1.26,1.55-2.45c-0.07-1.89-1.54-2.17-2.91-2.63c-0.67-0.22-1.92-0.14-1.45-1.32
	c0.37-0.94,1.4-0.54,2.1-0.21c0.74,0.35,1.32,0.53,1.67-0.39c0.43-1.13-0.64-1.08-1.19-1.33C167.8,66.84,167.21,66.84,166.77,66.76z
	 M174.72,66.87c-0.88,0-1.76-0.01-2.64,0c-0.53,0.01-1.14-0.14-1.2,0.73c-0.07,0.9,0.39,1.14,1.15,1.04
	c1.37-0.18,1.6,0.56,1.54,1.71c-0.07,1.35,0,2.71-0.02,4.07c-0.01,0.7,0.02,1.24,0.98,1.23c0.99-0.01,0.93-0.62,0.93-1.27
	c-0.01-1.44-0.02-2.87,0.01-4.31c0.01-0.52-0.15-1.11,0.61-1.38c0.73-0.26,2.34,0.6,1.98-1.12c-0.3-1.48-1.74-0.39-2.62-0.69
	C175.22,66.81,174.96,66.87,174.72,66.87z"/>
<path class="st1" d="M167.11,334.65c0-3.33,0-6.09,0-8.85c0-0.87,0.67-1.18,1.25-1.6c7.39-5.29,14.77-10.59,21.86-16.29
	c7.4-5.95,14.61-12.1,21.48-18.65c1.27-1.21,2.6-2.36,3.93-3.5c0.44-0.38,0.76-1.24,1.51-0.85c0.57,0.29,0.25,1.01,0.31,1.54
	c0.61,5.33-0.58,9.44-5.17,13.29c-11.18,9.37-22.31,18.78-34.22,27.23C174.58,329.45,171.07,331.88,167.11,334.65z"/>
<path class="st1" d="M148.11,34.4c5.44,0,10.87,0.05,16.31-0.03c1.65-0.03,2.2,0.46,2.21,2.16c0.02,5.47,0.08,5.47-5.31,5.47
	c-9.91,0-19.83-0.04-29.74,0.03c-1.82,0.01-2.5-0.4-2.47-2.37c0.09-5.24-0.01-5.25,5.33-5.25C138.99,34.41,143.55,34.41,148.11,34.4
	C148.11,34.4,148.11,34.4,148.11,34.4z"/>
<path class="st0" d="M89.75,123.48c-4.66,0.63-9.03,2.14-12.85,4.83c-1.7,1.2-2.7,1.16-4.18-0.23c-2.62-2.47-2.73-2.43,0.21-4.46
	c5.72-3.94,12.24-5.76,18.99-6.85c1.64-0.26,2.7-0.67,2.31-2.6c-0.38-1.87,0.8-3.95-1-5.65c-2.45-2.31-5.33-3.45-8.64-3.59
	c-2.1-0.09-4.13,0.38-6.13,0.98c-6.49,1.97-12.28,0.33-17.73-3.29c-0.71-0.48-1.13-0.99-1.09-1.93c0.08-2.06-0.1-4.14,0.5-6.33
	c3.82,3.43,7.78,6.41,13.6,6.36c-2.93-4.48-6.43-7.74-11.01-9.69c-1.61-0.68-2.14-1.35-1.34-2.94c0.32-0.63,0.5-1.35,0.69-2.04
	c0.35-1.27,1.07-1.78,2.22-0.95c3.04,2.21,6.04,0.71,9.25,0.07c-1.51-2.61-3.49-4.53-5.95-5.87c-1.39-0.76-1.35-1.33-0.39-2.43
	c3.34-3.87,2.14-3.9,6.28-0.85c0.84,0.62,1.47,0.99,2.54,0.53c1.16-0.5,2.44-0.72,3.82-1.11c-0.97-1.83-1.89-3.64-2.88-5.42
	c-0.65-1.17-0.58-1.89,0.73-2.66c3.64-2.14,3.6-2.21,5.44,1.43c0.11,0.21,0.23,0.42,0.34,0.63c1.84,3.49,1.83,3.47,5.72,2.8
	c1.15-0.2,2.33-0.26,3.71-0.41c-1.99-3.6-5.21-5.51-8.45-7.49c6.89-2.89,7.59-2.74,12.78,2.71c5.18-5.47,5.82-5.61,12.79-2.71
	c-2.68,1.6-5.26,3.19-7.2,5.57c-0.43,0.53-1.08,0.98-1.05,1.93c2.08,0.33,4.25,0.27,6.22,1.23c0.85,0.42,1.1-0.46,1.38-0.96
	c0.99-1.72,2-3.45,2.83-5.25c0.48-1.03,0.75-1.57,2.01-0.85c4.98,2.83,4.31,1.66,2.05,6.34c-0.48,1-1.09,1.94-1.72,3.06
	c1.52,0.44,2.98,0.74,4.33,1.29c1.5,0.61,1.89-0.85,2.81-1.28c1.03-0.47,1.96-2.11,3-1.37c1.38,0.98,2.37,2.57,3.33,4.03
	c0.4,0.61-0.57,0.78-0.98,1.04c-2.45,1.53-4.58,3.37-6.1,6.07c3.2,0.65,6.19,2.15,9.23-0.08c1.2-0.88,1.86-0.25,2.22,0.96
	c0.04,0.15,0.09,0.31,0.14,0.46c1.24,3.36,1.22,3.33-1.91,4.98c-4.01,2.11-7.23,5.08-9.87,9.2c5.81,0.12,9.74-2.95,13.58-6.33
	c0.65,2.25,0.4,4.42,0.5,6.56c0.05,1.02-0.64,1.38-1.29,1.81c-5.55,3.66-11.44,5.11-17.99,3.06c-5.11-1.6-9.95-1.25-14.11,2.56
	c-0.96,0.88-1.79,6.65-1.07,7.68c0.51,0.73,1.44,0.54,2.19,0.67c6.33,1.12,12.55,2.65,17.96,6.27c4.67,3.12,4.22,2.25,0.31,5.83
	c-0.89,0.82-1.5,0.66-2.42-0.01c-4.14-3.01-8.87-4.56-14.56-5.61c3.69,4.21,7.6,6.84,12.45,8.56c-2.09,1.54-4.31,2.28-6.45,3.17
	c-0.89,0.37-1.53-0.16-2.21-0.56c-2.59-1.54-4.83-3.53-7.39-5.9c0,2.61-0.06,4.73,0.02,6.85c0.05,1.19-0.25,1.67-1.55,1.75
	c-4.51,0.25-4.51,0.31-4.51-4.29c0-1.26,0-2.53,0-4.19c-2.33,1.9-4.3,3.69-6.46,5.24c-1.62,1.16-3.07,1.41-4.82,0.46
	c-1.46-0.8-3.01-1.45-4.92-2.35c4.8-1.99,8.97-4.31,12.01-8.19c0.05-0.16,0.11-0.32,0.16-0.47
	C90.04,123.35,89.9,123.41,89.75,123.48z M115.62,82.03c-6.73-2.29-8.51,3.63-12.15,6.81c4.24,2.24,5.83-2.63,9.04-2.87
	C114.62,85.8,114.49,83.37,115.62,82.03z M78.99,81.98c0.8,2.26,1.92,4.05,4.5,4.69c1.18,0.29,2.24,1.17,3.26,1.91
	c1.9,1.37,1.87,1.41,4.08,0.04C87.32,85.59,85.5,79.7,78.99,81.98z M94.23,101.59c0-2.14-0.02-4.02,0.01-5.9
	c0.02-0.83-0.21-1.15-1.1-0.96c-2.97,0.63-5.71,1.67-8.04,4.22C88.45,99.19,91.29,100.07,94.23,101.59z M109.4,99
	c-2.05-2.37-4.47-3.24-6.94-4.06c-1.8-0.6-2.42-0.09-2.23,1.81c0.15,1.52,0.03,3.06,0.03,4.84C103.23,100.08,105.98,99.15,109.4,99z
	 M112.15,92.9c1.07,1.17,2.08,2.17,2.96,3.27c0.55,0.69,0.85,0.7,1.39,0c1.2-1.56,2.47-3.07,3.84-4.75
	C117.36,90.87,114.69,91.29,112.15,92.9z M78.75,97.01c1.06-1.6,2.3-2.78,3.73-4.11c-2.73-1.56-5.35-2.06-8.35-1.46
	C75.71,93.36,77.12,95.06,78.75,97.01z M104.82,78.22c-1.79-0.25-3.45-0.72-4.21,0.31c-0.85,1.16-0.48,2.88-0.08,4.6
	C102,81.45,103.27,79.99,104.82,78.22z M89.77,78.36c1.49,1.7,2.76,3.15,4.14,4.72C94.79,78.15,94.28,77.53,89.77,78.36z"/>
<path class="st0" d="M232.27,71.85c-2.02-3.64-5.26-5.53-8.61-7.57c1.11-0.35,2.04-0.58,2.91-0.94c3.71-1.5,6.79-0.97,9.01,2.63
	c0.48,0.78,1.07,1.56,1.86,0.22c2.49-4.22,6.07-4.24,10.08-2.6c0.59,0.24,1.2,0.42,2.03,0.71c-3.4,1.92-6.47,3.99-8.65,7.46
	c2.31,0.43,4.55,0.35,6.55,1.35c0.7,0.35,0.93-0.4,1.23-0.84c1.2-1.79,2.24-3.68,3.03-5.69c0.36-0.92,0.67-1.15,1.71-0.67
	c4.36,1.99,4.52,2.32,2.24,6.51c-0.53,0.97-1.12,1.92-1.75,3c1.53,0.44,2.99,0.76,4.37,1.28c1.58,0.6,1.97-1.02,3-1.42
	c0.97-0.38,1.76-2,2.79-1.19c1.35,1.05,2.38,2.57,3.34,4.02c0.39,0.58-0.56,0.77-0.98,1.03c-2.48,1.51-4.58,3.39-6.1,6.01
	c3.23,0.8,6.32,2.19,9.41-0.1c0.95-0.7,1.62-0.34,1.91,0.77c0.04,0.15,0.08,0.31,0.14,0.46c1.38,3.53,1.36,3.5-1.96,5.31
	c-3.91,2.13-7.08,5.07-9.55,8.87c3.44,0.52,3.85,0.34,13.58-5.91c0.4,2.19,0.31,4.31,0.34,6.42c0.02,0.99-0.66,1.38-1.33,1.82
	c-5.55,3.65-11.45,5.08-17.99,3.01c-5.03-1.59-9.79-1.18-13.95,2.42c-1.05,0.91-1.97,6.92-1.16,7.89c0.54,0.64,1.46,0.52,2.22,0.65
	c4.67,0.76,9.22,1.93,13.54,3.89c1.52,0.69,3.02,1.47,4.43,2.35c3.99,2.49,3.85,3.9-0.35,6.32c-0.97,0.56-1.27-0.16-1.77-0.51
	c-4.2-2.93-8.92-4.49-14.45-5.61c3.47,4.35,7.56,6.85,12.56,8.73c-2.45,1.09-4.53,2.03-6.62,2.94c-1.24,0.54-2.28-0.07-3.22-0.74
	c-2.19-1.56-4.44-3.05-6.47-5.74c0,2.65-0.08,4.68,0.03,6.71c0.07,1.36-0.19,1.97-1.76,1.99c-4.21,0.07-4.21,0.15-4.21-4.07
	c0-1.34,0-2.69,0-4.45c-1.87,1.55-3.53,2.8-5.06,4.21c-2.77,2.54-5.56,2.9-8.6,0.49c-0.67-0.53-1.53-0.83-2.65-1.42
	c4.84-1.76,8.83-4.3,12.45-8.55c-5.47,0.89-9.94,2.54-14.06,5.22c-0.62,0.41-1.12,1.61-2.17,0.74c-1.28-1.06-2.83-1.93-3.6-3.44
	c-0.27-0.52,0.77-1.05,1.31-1.47c4.99-3.86,10.84-5.67,16.87-7.04c0.23-0.05,0.47-0.09,0.71-0.13c5.32-1.07,5.45-1.29,4.81-6.73
	c-0.12-1-0.71-1.58-1.35-2.15c-4.04-3.58-8.71-4.1-13.68-2.56c-4.95,1.54-9.8,1.45-14.46-0.84c-6.11-3.01-5.37-2.45-5.08-8.04
	c0.04-0.72,0.11-1.43,0.21-2.58c4,3.38,7.9,6.55,13.75,6.4c-2.97-4.46-6.53-7.68-11.13-9.79c-0.61-0.28-1.91-0.13-1.59-1.33
	c0.45-1.65,0.57-3.47,1.79-4.8c0.37-0.41,1.12,0.07,1.54,0.36c3.04,2.12,6.02,0.81,9.18,0c-1.48-2.53-3.38-4.47-5.81-5.74
	c-1.59-0.83-1.38-1.55-0.42-2.6c0.38-0.41,0.77-0.83,1.05-1.31c1.04-1.76,2.35-2.06,3.74-0.54c1.67,1.83,3.49,2.11,5.68,1.09
	c0.64-0.3,1.39-0.35,2.12-0.52c-1.01-1.95-1.96-3.87-3.01-5.73c-0.6-1.07-0.43-1.77,0.68-2.27c0.22-0.1,0.42-0.24,0.62-0.36
	c3.2-1.86,3.2-1.86,4.88,1.49c0.11,0.21,0.21,0.43,0.33,0.64c1.92,3.65,1.92,3.64,5.86,2.97C229.7,72.07,230.82,72.01,232.27,71.85z
	 M230.32,88.74c-3.63-3.06-5.38-9-11.93-6.76c0.77,2.17,1.69,4.01,4.24,4.6c1.18,0.27,2.35,1.04,3.25,1.88
	C227.25,89.74,228.55,89.89,230.32,88.74z M242.68,88.89c4.44,1.9,6.2-2.68,9.49-3.06c1.81-0.21,1.82-2.46,2.73-3.84
	C248.21,79.77,246.48,85.73,242.68,88.89z M224.37,99c3.54,0.11,6.4,1.16,9.31,2.62c0-2.14-0.04-3.89,0.02-5.63
	c0.03-0.98-0.15-1.51-1.3-1.25C229.48,95.38,226.81,96.44,224.37,99z M248.72,98.98c-1.65-2-3.62-2.93-5.7-3.66
	c-3.39-1.19-3.4-1.16-3.4,2.3c0,1.23,0,2.46,0,3.94C242.58,100.09,245.39,99.13,248.72,98.98z M218,96.88
	c1.28-1.38,2.45-2.63,3.76-4.03c-2.63-1.46-5.25-1.95-8.29-1.44C215.04,93.31,216.46,95.01,218,96.88z M255.18,96.87
	c1.56-1.86,3.01-3.58,4.61-5.48c-3.09-0.43-5.76-0.12-8.31,1.5C252.77,94.28,253.95,95.55,255.18,96.87z M233.62,83.47
	c0.14-5.73-0.18-6.07-4.41-5.01C230.61,80.06,231.93,81.55,233.62,83.47z M243.86,78.38c-4.17-0.9-4.65-0.35-4,4.6
	C241.38,81.52,242.72,80.09,243.86,78.38z"/>
<path class="st0" d="M184.16,230.28c0.63,0.11,0.97,0.09,1.25,0.22c2.68,1.24,5.1,1.16,7.21-1.17c0.94-1.04,1.85-0.93,2.69,0.3
	c0.8,1.17,1.76,2.24,2.72,3.44c-3,1.72-5.57,3.7-7.44,6.79c3.17,0.73,6.15,2.23,9.24,0c1.19-0.86,1.86-0.31,2.21,0.94
	c0.17,0.61,0.33,1.24,0.61,1.81c0.77,1.56,0.63,2.43-1.27,3.19c-4.56,1.84-7.96,5.19-10.74,9.22c3.45,0.99,7.26-0.67,13.29-5.82
	c0.85,2.34,0.5,4.7,0.53,7.01c0.01,0.66-0.65,0.86-1.09,1.16c-5.59,3.78-11.57,5.22-18.19,3.16c-5.13-1.59-9.95-1.21-14.11,2.59
	c-0.92,0.84-1.72,6.72-1.04,7.71c0.46,0.66,1.29,0.48,1.96,0.59c5.53,0.95,10.93,2.34,15.94,4.95c2.12,1.11,4.13,2.37,5.82,4.13
	c-0.25,0.28-0.44,0.54-0.67,0.75c-3.25,3.11-3.26,3.12-7.11,0.88c-3.07-1.78-6.41-2.84-9.82-3.73c-0.59-0.15-1.22-0.34-1.92,0.21
	c3.12,3.68,7.02,6.14,11.74,7.89c-2.15,1.55-4.38,2.29-6.53,3.18c-0.82,0.34-1.38-0.16-1.98-0.52c-2.61-1.58-4.97-3.47-7.28-5.86
	c-0.5,2.26-0.24,4.36-0.2,6.43c0.02,1.49-0.28,2.07-1.94,2.06c-4.12-0.05-4.12,0.05-4.12-4.11c0-1.33,0-2.66,0-4.37
	c-2.4,2.01-4.39,3.81-6.61,5.34c-1.55,1.07-2.92,1.33-4.6,0.41c-1.52-0.84-3.13-1.5-5.19-2.47c4.95-1.74,8.79-4.26,12.05-7.88
	c-1.11-0.63-1.91-0.28-2.74-0.05c-4,1.12-7.81,2.59-11.31,4.93c-2.13,1.43-3.4-0.74-4.67-2c-1.41-1.4,0.11-2.03,0.96-2.67
	c5.65-4.24,12.21-6.22,19.04-7.29c2.42-0.38,3.31-1.05,3.15-3.64c-0.27-4.39-1.83-6.56-6.38-7.81c-3.04-0.84-6.03-0.58-8.98,0.35
	c-6.15,1.95-11.78,0.73-17.22-2.46c-1.7-1-2.3-2.26-2.15-4.07c0.12-1.57,0.25-3.15,0.41-5.02c3.99,3.43,7.89,6.55,13.73,6.42
	c-2.98-4.42-6.43-7.76-11.04-9.64c-1.71-0.7-2.03-1.43-1.28-2.96c0.35-0.71,0.63-1.47,0.82-2.24c0.29-1.19,1.01-1.46,1.9-0.8
	c3.1,2.3,6.15,0.87,9.41,0.12c-1.78-3.05-4.3-5.06-7.38-6.74c0.34-0.48,0.63-0.91,0.94-1.32c2.8-3.74,2.82-3.78,6.58-0.91
	c0.81,0.62,1.46,0.7,2.38,0.37c1.19-0.43,2.45-0.71,3.8-1.09c-0.94-1.8-1.85-3.63-2.85-5.4c-0.73-1.29-0.47-2,0.85-2.76
	c3.52-2.01,3.48-2.08,5.26,1.43c0.14,0.28,0.29,0.57,0.45,0.85c1.85,3.38,1.85,3.36,5.6,2.68c1.17-0.21,2.37-0.31,3.73-0.48
	c-1.96-3.45-5.07-5.47-8.37-7.33c5.84-3.2,8.11-2.74,12.84,2.83c2.95-5.87,7.45-5.47,12.58-2.87c-3.26,1.87-6.31,3.92-8.41,7.34
	c2.27,0.38,4.43,0.33,6.36,1.29c0.9,0.44,1.14-0.31,1.43-0.81c1.02-1.8,2.09-3.59,2.92-5.48c0.53-1.22,1.05-1.32,2.1-0.69
	c4.62,2.77,4.31,1.42,2,6.2C185.51,228.04,184.86,229.04,184.16,230.28z M160.82,243.66c-3.78-3.29-5.57-9.14-12.24-6.91
	c0.7,1.27,1.08,3.08,2.04,3.47c2.68,1.09,5.05,2.59,7.48,4.08C158.58,244.59,159.6,243.98,160.82,243.66z M173.03,243.64
	c4.45,1.85,6.21-2.7,9.51-3.11c1.84-0.22,1.71-2.51,2.74-3.81C178.53,234.54,176.77,240.42,173.03,243.64z M154.65,253.74
	c3.54,0.04,6.33,1.1,9.28,2.51c0-2.06-0.03-3.86,0.01-5.67c0.02-0.92-0.21-1.32-1.23-1.11C159.8,250.09,157.15,251.18,154.65,253.74
	z M179.2,253.78c-1.74-2-3.62-2.96-5.64-3.67c-3.61-1.27-3.61-1.25-3.61,2.43c0,1.17,0,2.33,0,3.76
	C172.87,254.83,175.67,253.79,179.2,253.78z M143.74,246.17c0.85,0.95,1.49,1.64,2.1,2.35c0.81,0.96,1.55,2.67,2.41,2.73
	c1.18,0.08,1.67-1.87,2.78-2.61c1.51-1.01,0.51-1.47-0.43-1.82C148.52,246.05,146.38,245.59,143.74,246.17z M190.02,246.18
	c-2.07-0.63-3.86-0.25-5.6,0.21c-2.84,0.75-2.88,0.99-0.9,3.03c0.68,0.71,1.34,1.44,2.01,2.16
	C187.05,249.75,188.47,248.05,190.02,246.18z M163.71,237.92c0.58-5.33,0.16-5.79-4.17-4.8
	C160.88,234.67,162.17,236.15,163.71,237.92z M170.14,237.89c1.46-1.65,2.78-3.15,4.2-4.75
	C169.98,232.13,169.62,232.55,170.14,237.89z"/>
<path class="st1" d="M209.4,144.01c5.59,3.75,10.65,8.2,16.02,12.24c2.08,1.56,4.29,2.98,6.05,4.94c-0.05,0.63-0.13,1.27-0.13,1.9
	c0,25.62,0,51.24,0.01,76.86c-7.7-5.64-15.26-11.46-22.58-17.58c1.02-0.8,0.57-1.93,0.57-2.9
	C209.38,194.32,209.38,169.17,209.4,144.01z"/>
<path class="st1" d="M123.83,144.55c5.31-4.76,11.17-8.84,16.74-13.28c1.72-1.37,3.32-2.95,5.35-3.92
	c-0.01,25.78-0.02,51.55-0.02,77.33c0,0.48,0.07,0.95,0.1,1.43c-5.5,4.9-11.55,9.12-17.32,13.7c-1.54,1.22-2.95,2.63-4.77,3.49
	c0-19.47,0.01-38.94-0.01-58.41C123.9,158.12,123.85,151.33,123.83,144.55z"/>
<path class="st1" d="M166.48,111.36c0.4-0.52,0.79-0.32,1.2,0c7.15,5.64,14.54,10.98,21.45,16.92c-0.75,0.5-0.53,1.28-0.53,1.96
	c0,25.52,0.02,51.04,0.03,76.57c-6.68-5.13-13.36-10.27-20.04-15.41c-0.63-0.48-1.17-1.08-1.99-1.26c0-25.62,0.01-51.25,0.01-76.87
	C166.61,112.63,166.53,111.99,166.48,111.36z"/>
<path class="st0" d="M123.83,144.55c0.03,6.78,0.08,13.56,0.08,20.34c0.01,19.47,0.01,38.94,0.01,58.41
	c-6.87,5.34-13.74,10.68-20.61,16.02c-0.04-0.48-0.11-0.95-0.11-1.43c0-25.79,0.01-51.59,0.02-77.38
	C110.08,155.19,116.95,149.87,123.83,144.55z"/>
<path class="st0" d="M188.63,206.8c-0.01-25.52-0.03-51.04-0.03-76.57c0-0.69-0.22-1.47,0.53-1.96
	c6.75,5.25,13.51,10.49,20.26,15.74c-0.01,25.15-0.02,50.31-0.06,75.46c0,0.97,0.45,2.1-0.57,2.9
	C202.06,217.19,195.34,211.99,188.63,206.8z"/>
<path class="st0" d="M166.48,111.36c0.05,0.63,0.13,1.27,0.13,1.9c0,25.62,0,51.25-0.01,76.87c-6.87,5.32-13.74,10.65-20.61,15.98
	c-0.04-0.48-0.1-0.95-0.1-1.43c0-25.78,0.01-51.55,0.02-77.33C152.77,122.02,159.63,116.69,166.48,111.36z"/>
<path class="st1" d="M103.21,160.51c-0.01,25.79-0.02,51.59-0.02,77.38c0,0.48,0.07,0.95,0.11,1.43c-2.53,2.53-5.6,4.4-8.3,6.72
	c-0.88,0.75-1.23,0.14-1.65-0.44c-4.44-6.17-8.89-12.34-12.62-18.99c0.69-0.54,0.45-1.32,0.45-2c0.01-14.78,0.01-29.55,0-44.33
	c0-0.76,0.29-1.63-0.55-2.2c6.12-5.34,12.75-10.03,19.11-15.08C100.86,162.12,101.83,161.03,103.21,160.51z"/>
<path class="st0" d="M231.35,239.96c0-25.62-0.01-51.24-0.01-76.86c0-0.63,0.08-1.27,0.13-1.9c6.86,5.33,13.72,10.66,20.57,15.99
	c0.03,16.99,0.06,33.98,0.08,50.98c-3.45,5.98-7.48,11.57-11.49,17.18c-0.79,1.11-1.31,0.97-2.21,0.24
	C236.1,243.67,233.71,241.83,231.35,239.96z"/>
<path class="st1" d="M252.13,228.16c-0.03-16.99-0.06-33.98-0.08-50.98c6.12,4.17,11.73,9.02,17.64,13.46
	c0.71,0.53,0.8,1.07,0.5,1.84C265.18,204.89,259.43,216.92,252.13,228.16z"/>
<path class="st0" d="M80.64,178.08c0.83,0.57,0.55,1.44,0.55,2.2c0.02,14.78,0.01,29.55,0,44.33c0,0.69,0.24,1.46-0.45,2
	c-6.68-10.76-12.2-22.09-16.92-33.83c-0.39-0.97-0.32-1.53,0.55-2.19C69.82,186.45,75.22,182.26,80.64,178.08z"/>
<path class="st0" d="M164.07,85.55c0.09,5.72-4.03,9.04-8.71,6.98c-0.63-0.28-2.01-0.34-1.27-1.7c0.48-0.88,0.94-1.93,2.31-0.88
	c0.7,0.54,1.66,0.6,2.53,0.28c0.85-0.31,1.76-0.89,1.56-1.84c-0.24-1.14-1.19-0.24-1.78-0.2c-2.88,0.16-4.79-1.01-5.31-3.37
	c-0.51-2.32,0.69-4.54,2.91-5.39c2.7-1.03,5.66-0.09,6.9,2.19C163.89,82.84,163.88,84.21,164.07,85.55z M159.2,85.68
	c0.83-0.04,1.77-0.61,1.71-2.11c-0.05-1.37-1.02-1.93-2.23-1.97c-1.35-0.05-2.39,0.58-2.4,2.04
	C156.27,85.08,157.26,85.68,159.2,85.68z"/>
<path class="st0" d="M182.76,93.06c-1.38-0.04-2.71-0.28-3.81-1.17c-1.5-1.21-2.01-2.9-0.95-4.43c0.87-1.26,1.52-2.09,0.25-3.43
	c-0.46-0.48-0.35-1.38-0.12-2.08c0.72-2.15,2.47-2.83,4.5-2.86c2.09-0.04,3.97,0.51,4.8,2.76c0.62,1.66-1.25,3.09-0.98,4.04
	c0.33,1.15,1.83,2.05,1.58,3.68C187.69,91.72,185.7,93.05,182.76,93.06z M182.63,87.22c-0.93,0.09-2.14,0.23-2.09,1.74
	c0.04,1.35,1.17,1.54,2.23,1.58c1.22,0.04,2.37-0.37,2.33-1.74C185.07,87.58,183.98,87.22,182.63,87.22z M182.71,84.8
	c1.08-0.08,1.96-0.44,1.97-1.64c0-1.22-0.92-1.58-1.95-1.59c-0.96-0.01-1.74,0.39-1.8,1.48C180.87,84.27,181.71,84.65,182.71,84.8z"
	/>
<path class="st0" d="M169.93,90.23c1.87,0,3.04,0.04,4.21-0.01c1-0.04,1.61,0.06,1.63,1.36c0.02,1.36-0.67,1.32-1.62,1.31
	c-2.24-0.03-4.48,0.04-6.71-0.04c-0.6-0.02-1.58,0.51-1.77-0.55c-0.14-0.81-0.27-1.71,0.62-2.39c1.58-1.21,3.1-2.51,4.62-3.81
	c1.15-0.98,2.27-2.24,1.16-3.67c-1.08-1.38-2.49-0.64-3.51,0.42c-1.07,1.12-1.51-0.09-2.12-0.49c-0.88-0.59-0.16-1.07,0.24-1.52
	c1.92-2.2,5.82-2.43,7.76-0.44c1.86,1.9,1.49,4.78-0.93,6.94C172.57,88.17,171.55,88.93,169.93,90.23z"/>
<path class="st0" d="M147.98,82.33c-0.61,0.08-1.08,0.1-1.52,0.22c-0.98,0.27-0.98-0.46-1.19-1.05c-0.25-0.7-0.25-1.24,0.61-1.47
	c0.46-0.12,0.92-0.26,1.38-0.4c3.39-1,3.7-0.78,3.7,2.62c0,3.03-0.04,6.06,0.02,9.09c0.02,1.06-0.16,1.57-1.41,1.56
	c-1.25-0.01-1.65-0.36-1.61-1.62C148.04,88.35,147.98,85.4,147.98,82.33z"/>
<path class="st0" d="M155.66,71.11c0-4.24,0-4.24,4.24-4.23c0.48,0,0.96,0.01,1.44,0c0.53-0.01,0.92,0.09,0.94,0.76
	c0.02,0.71-0.27,1.01-0.98,0.99c-0.96-0.02-1.92-0.01-2.88,0.01c-0.56,0.01-0.85,0.31-0.85,0.91c0,0.66,0.44,0.67,0.93,0.8
	c1.05,0.26,2.98-0.72,3.02,0.66c0.06,1.95-1.95,0.63-3,0.95c-0.65,0.19-0.97,0.39-0.95,1.08c0.02,0.76,0.47,0.92,1.1,0.92
	c0.88,0,1.76,0.02,2.64,0c0.71-0.02,0.99,0.27,0.98,0.99c-0.02,0.76-0.54,0.64-0.99,0.66c-0.32,0.01-0.64,0-0.96,0
	C155.66,75.66,155.66,75.66,155.66,71.11z"/>
<path class="st0" d="M166.77,66.76c0.44,0.08,1.03,0.08,1.52,0.3c0.55,0.25,1.62,0.2,1.19,1.33c-0.35,0.92-0.94,0.75-1.67,0.39
	c-0.69-0.33-1.72-0.73-2.1,0.21c-0.47,1.18,0.78,1.1,1.45,1.32c1.37,0.46,2.83,0.74,2.91,2.63c0.05,1.19-0.53,2.03-1.55,2.45
	c-1.67,0.68-3.26,0.28-4.76-0.67c-0.5-0.32-0.36-0.62-0.09-0.94c0.3-0.34,0.57-0.79,1.17-0.46c0.41,0.23,0.84,0.46,1.29,0.59
	c0.71,0.2,1.6,0.32,1.86-0.51c0.31-1-0.72-1.01-1.34-1.26c-0.3-0.12-0.6-0.22-0.9-0.3c-1.53-0.38-2.39-1.29-2.08-2.92
	C163.95,67.32,165.21,66.88,166.77,66.76z"/>
<path class="st0" d="M174.72,66.87c0.24,0,0.5-0.06,0.72,0.01c0.88,0.29,2.31-0.79,2.62,0.69c0.35,1.72-1.25,0.86-1.98,1.12
	c-0.76,0.27-0.6,0.86-0.61,1.38c-0.02,1.44-0.01,2.87-0.01,4.31c0,0.65,0.06,1.27-0.93,1.27c-0.96,0.01-0.99-0.53-0.98-1.23
	c0.02-1.36-0.05-2.71,0.02-4.07c0.06-1.15-0.18-1.88-1.54-1.71c-0.75,0.1-1.21-0.14-1.15-1.04c0.06-0.87,0.67-0.72,1.2-0.73
	C172.96,66.86,173.84,66.87,174.72,66.87z"/>
<path class="st2" d="M115.62,82.03c-1.13,1.34-1,3.77-3.11,3.93c-3.21,0.25-4.8,5.12-9.04,2.87
	C107.11,85.65,108.89,79.74,115.62,82.03z"/>
<path class="st2" d="M78.99,81.98c6.51-2.28,8.33,3.6,11.84,6.64c-2.21,1.37-2.18,1.33-4.08-0.04c-1.02-0.74-2.09-1.62-3.26-1.91
	C80.91,86.04,79.79,84.24,78.99,81.98z"/>
<path class="st2" d="M94.23,101.59c-2.94-1.52-5.77-2.39-9.13-2.64c2.33-2.55,5.07-3.59,8.04-4.22c0.89-0.19,1.12,0.13,1.1,0.96
	C94.2,97.57,94.23,99.45,94.23,101.59z"/>
<path class="st2" d="M109.4,99c-3.42,0.15-6.17,1.08-9.14,2.59c0-1.77,0.12-3.32-0.03-4.84c-0.19-1.9,0.43-2.41,2.23-1.81
	C104.93,95.76,107.36,96.63,109.4,99z"/>
<path class="st2" d="M112.15,92.9c2.54-1.61,5.2-2.03,8.19-1.47c-1.37,1.68-2.64,3.19-3.84,4.75c-0.54,0.7-0.84,0.68-1.39,0
	C114.24,95.07,113.23,94.07,112.15,92.9z"/>
<path class="st2" d="M78.75,97.01c-1.62-1.95-3.03-3.66-4.62-5.57c3-0.6,5.61-0.09,8.35,1.46C81.04,94.23,79.81,95.41,78.75,97.01z"
	/>
<path class="st2" d="M104.82,78.22c-1.55,1.77-2.82,3.23-4.29,4.91c-0.4-1.72-0.77-3.45,0.08-4.6
	C101.37,77.5,103.03,77.97,104.82,78.22z"/>
<path class="st2" d="M89.77,78.36c4.5-0.83,5.02-0.21,4.14,4.72C92.54,81.51,91.26,80.06,89.77,78.36z"/>
<path class="st2" d="M89.75,123.48c0.15-0.07,0.29-0.13,0.44-0.2c-0.06,0.16-0.11,0.31-0.16,0.47
	C89.93,123.67,89.84,123.57,89.75,123.48z"/>
<path class="st2" d="M230.32,88.74c-1.77,1.15-3.07,1-4.44-0.28c-0.9-0.84-2.08-1.61-3.25-1.88c-2.55-0.6-3.47-2.44-4.24-4.6
	C224.94,79.74,226.69,85.68,230.32,88.74z"/>
<path class="st2" d="M242.68,88.89c3.8-3.17,5.53-9.12,12.22-6.9c-0.91,1.37-0.92,3.63-2.73,3.84
	C248.88,86.21,247.12,90.79,242.68,88.89z"/>
<path class="st2" d="M224.37,99c2.45-2.56,5.12-3.62,8.02-4.26c1.16-0.26,1.33,0.27,1.3,1.25c-0.06,1.74-0.02,3.49-0.02,5.63
	C230.76,100.16,227.9,99.1,224.37,99z"/>
<path class="st2" d="M248.72,98.98c-3.33,0.16-6.14,1.11-9.09,2.58c0-1.49,0-2.72,0-3.94c0-3.46,0.01-3.49,3.4-2.3
	C245.09,96.05,247.07,96.98,248.72,98.98z"/>
<path class="st2" d="M218,96.88c-1.54-1.86-2.96-3.57-4.53-5.48c3.03-0.5,5.66-0.02,8.29,1.44C220.45,94.25,219.28,95.5,218,96.88z"
	/>
<path class="st2" d="M255.18,96.87c-1.23-1.32-2.41-2.59-3.7-3.98c2.55-1.62,5.21-1.93,8.31-1.5
	C258.19,93.29,256.74,95.01,255.18,96.87z"/>
<path class="st2" d="M233.62,83.47c-1.69-1.92-3.01-3.41-4.41-5.01C233.44,77.4,233.76,77.74,233.62,83.47z"/>
<path class="st2" d="M243.86,78.38c-1.15,1.71-2.48,3.14-4,4.6C239.21,78.03,239.69,77.48,243.86,78.38z"/>
<path class="st2" d="M160.82,243.66c-1.22,0.32-2.25,0.93-2.71,0.64c-2.43-1.49-4.8-2.99-7.48-4.08c-0.96-0.39-1.34-2.2-2.04-3.47
	C155.25,234.52,157.04,240.37,160.82,243.66z"/>
<path class="st2" d="M173.03,243.64c3.74-3.22,5.5-9.09,12.24-6.92c-1.03,1.31-0.9,3.59-2.74,3.81
	C179.24,240.93,177.48,245.49,173.03,243.64z"/>
<path class="st2" d="M154.65,253.74c2.5-2.56,5.15-3.66,8.07-4.27c1.02-0.21,1.25,0.19,1.23,1.11c-0.04,1.8-0.01,3.61-0.01,5.67
	C160.97,254.85,158.19,253.79,154.65,253.74z"/>
<path class="st2" d="M179.2,253.78c-3.53,0-6.33,1.05-9.25,2.52c0-1.42,0-2.59,0-3.76c0-3.69,0.01-3.7,3.61-2.43
	C175.58,250.83,177.46,251.78,179.2,253.78z"/>
<path class="st2" d="M143.74,246.17c2.64-0.59,4.78-0.12,6.87,0.65c0.94,0.35,1.94,0.81,0.43,1.82c-1.11,0.74-1.6,2.69-2.78,2.61
	c-0.86-0.06-1.6-1.77-2.41-2.73C145.23,247.81,144.59,247.13,143.74,246.17z"/>
<path class="st2" d="M190.02,246.18c-1.55,1.87-2.96,3.56-4.49,5.4c-0.67-0.72-1.33-1.46-2.01-2.16c-1.98-2.04-1.94-2.28,0.9-3.03
	C186.16,245.93,187.95,245.56,190.02,246.18z"/>
<path class="st2" d="M163.71,237.92c-1.54-1.77-2.82-3.25-4.17-4.8C163.87,232.13,164.29,232.59,163.71,237.92z"/>
<path class="st2" d="M170.14,237.89c-0.52-5.34-0.16-5.76,4.2-4.75C172.92,234.75,171.6,236.24,170.14,237.89z"/>
<path class="st2" d="M159.2,85.68c-1.94,0-2.93-0.59-2.92-2.05c0.01-1.45,1.05-2.08,2.4-2.04c1.22,0.04,2.18,0.6,2.23,1.97
	C160.97,85.07,160.03,85.64,159.2,85.68z"/>
<path class="st2" d="M182.63,87.22c1.35-0.01,2.44,0.36,2.47,1.58c0.04,1.38-1.11,1.78-2.33,1.74c-1.06-0.03-2.19-0.23-2.23-1.58
	C180.49,87.45,181.7,87.31,182.63,87.22z"/>
<path class="st2" d="M182.71,84.8c-1-0.15-1.84-0.53-1.78-1.75c0.05-1.08,0.84-1.48,1.8-1.48c1.03,0.01,1.95,0.37,1.95,1.59
	C184.68,84.36,183.79,84.72,182.71,84.8z"/>
</svg>
