<?xml version="1.0" encoding="utf-8"?>
<!-- Generator: Adobe Illustrator 26.5.0, SVG Export Plug-In . SVG Version: 6.00 Build 0)  -->
<svg version="1.1" id="Layer_1" xmlns="http://www.w3.org/2000/svg" xmlns:xlink="http://www.w3.org/1999/xlink" x="0px" y="0px"
	 viewBox="0 0 671.29 392.43" style="enable-background:new 0 0 671.29 392.43;" xml:space="preserve">
<style type="text/css">
	.st0{fill:#010100;}
	.st1{fill:#F7E552;}
	.st2{fill:#020201;}
</style>
<g>
	<path class="st0" d="M333.29,394.68c-111.9,0-223.8-0.01-335.7,0.05c-1.87,0-2.3-0.42-2.3-2.3c0.05-129.8,0.05-259.61,0-389.41
		c0-1.87,0.42-2.3,2.3-2.3c223.8,0.05,447.6,0.05,671.41,0c1.87,0,2.3,0.42,2.3,2.3c-0.05,129.8-0.05,259.61,0,389.41
		c0,1.87-0.42,2.3-2.3,2.3C557.09,394.68,445.19,394.68,333.29,394.68z M550.39,285.02c-1.02,0.9-2.09,0.62-3.04,0.66
		c-3.49,0.15-6.99,0.27-10.48,0.26c-18.74-0.05-37.48-0.14-56.23-0.26c-2.16-0.01-4.31-0.27-6.47-0.46
		c-0.88-0.08-1.69-0.6-1.89-1.37c-0.2-0.74,0.79-0.94,1.31-1.29c3.8-2.59,7.33-5.51,10.41-8.92c7.23-8,11.33-17.42,10.36-28.21
		c-2.02-22.49-23.39-41.58-46.02-41.62c-28.33-0.04-56.66,0.02-84.98-0.06c-2.17-0.01-2.56,0.7-2.54,2.68
		c0.15,9.99,0.18,19.99,0.2,29.98c0.07,31.9,0.15,63.81,0.1,95.71c0,2.38,0.83,2.68,2.8,2.68c15.49,0,30.99,0.05,46.48,0.18
		c2,0.02,2.69-0.4,2.68-2.56c-0.07-9.91,0.05-19.82,0.13-29.73c0-0.6-0.29-1.31,0.42-1.96c3.2,3.04,6.35,6.09,9.57,9.08
		c7.57,7.01,14.94,14.26,23.52,20.09c3.2,2.18,6.62,3.88,10.54,4.19c3.32,0.26,6.65,0.46,9.97,0.49
		c22.82,0.15,45.65,0.26,68.47,0.35c12.24,0.05,24.48-0.24,36.72-0.44c11.9-0.2,22.1-3.69,30.18-12.89
		c10.1-11.51,15.56-30.98,2.06-46.9c-5.33-6.28-10.32-12.86-15.43-19.33c-1.62-2.05-3.33-4.04-4.76-6.67c1.25,0,2.14,0,3.03,0
		c18.83,0.03,37.66,0.03,56.49,0.12c1.76,0.01,2.4-0.27,2.4-2.26c-0.05-13.74,0.02-27.49,0.16-41.23c0.02-2.17-0.4-2.95-2.81-2.94
		c-26.24,0.1-52.49,0.05-78.74,0.07c-4,0-7.98,0.35-11.9,1.24c-25.25,5.73-34.27,30.7-26.77,50.03c2.91,7.51,8.3,13.37,13.76,19.13
		C543.75,276.74,547.23,280.74,550.39,285.02z M221.04,63.76c0,0.08,0,0.17,0,0.25c-30.91,0-61.82-0.01-92.72,0.02
		c-2.07,0-4.18,0.11-6.21,0.5c-19.23,3.76-33.11,22.59-31.5,42.32c0.6,7.39,4.22,13.22,8.75,18.64c5.6,6.7,11.38,13.26,17.07,19.9
		c0.41,0.48,1.16,0.96,0.8,1.68c-0.32,0.63-1.12,0.61-1.8,0.59c-0.58-0.02-1.17,0-1.75,0c-32.66,0-65.32,0.02-97.99-0.04
		c-1.89,0-2.51,0.39-2.49,2.42c0.1,14.33,0.12,28.66-0.01,42.99c-0.02,2.4,0.76,2.76,2.9,2.76c34.83-0.06,69.66-0.01,104.48-0.07
		c7.41-0.01,14.81-0.33,22.22-0.52c12.91-0.33,22.87-6.06,29.7-16.88c6.22-9.86,8.68-20.53,4.6-31.89
		c-1.79-4.97-5.49-8.89-8.56-13.13c-5.43-7.47-11.53-14.45-16.78-22.06c-0.51-0.74-1.47-1.54-1.11-2.38
		c0.41-0.98,1.64-0.49,2.51-0.49c18.16-0.05,36.33-0.04,54.49-0.15c2.1-0.01,2.75,0.36,2.75,2.65c-0.1,27.49-0.04,54.99-0.11,82.48
		c0,1.94,0.46,2.46,2.43,2.45c15.08-0.09,30.16-0.11,45.24,0.02c2.31,0.02,2.67-0.68,2.67-2.78c-0.07-27.41-0.02-54.82-0.1-82.23
		c-0.01-2.07,0.48-2.6,2.58-2.59c17.5,0.09,34.99,0.03,52.49,0.09c1.63,0.01,2.28-0.23,2.27-2.1c-0.09-13.5-0.08-26.99-0.01-40.49
		c0.01-1.64-0.43-2.08-2.06-2.06c-7.58,0.11-15.16,0.11-22.74,0.12C269.03,63.77,245.03,63.76,221.04,63.76z M149.88,238.27
		c-0.54-1.47-0.84-2.22-1.1-2.99c-3.44-10.06-6.91-20.11-10.28-30.19c-0.52-1.57-1.15-2.18-2.93-2.17
		c-14.58,0.09-29.16,0.09-43.74,0.01c-1.72-0.01-2.46,0.52-3.01,2.12c-3.43,9.97-6.96,19.92-10.48,29.86
		c-0.28,0.8-0.25,1.83-1.34,2.4c-3.8-10.79-7.59-21.5-11.33-32.24c-0.48-1.39-1.01-2.15-2.73-2.14
		c-15.16,0.08-30.33,0.08-45.49,0.01c-1.85-0.01-2.01,0.48-1.46,2.08c14.46,42.37,28.89,84.75,43.26,127.16
		c0.53,1.58,1.25,1.98,2.8,1.97c9.75-0.06,19.5-0.1,29.24,0.02c2.03,0.03,2.86-0.61,3.53-2.47c5.78-16.1,11.66-32.17,17.54-48.24
		c0.31-0.85,0.35-1.91,1.29-2.54c5.89,17.02,11.84,33.95,17.56,50.95c0.86,2.55,2.01,3.18,4.54,3.14
		c9.41-0.16,18.83-0.12,28.24-0.01c1.97,0.02,2.83-0.5,3.5-2.45c14.39-42.13,28.87-84.23,43.32-126.34c0.31-0.9,0.88-1.77,0.66-2.9
		c-15.69,0-31.35,0.03-47.01-0.04c-1.87-0.01-2.67,0.51-3.29,2.37C157.59,216.32,153.83,226.94,149.88,238.27z M518.88,162.54
		c1.78,1.66,3.22,3,4.65,4.35c8.47,8.01,16.88,16.09,26.2,23.15c3.27,2.47,6.76,4.4,11.02,4.82c7.3,0.72,14.62,0.75,21.93,0.81
		c20.83,0.17,41.66,0.03,62.49,0.11c1.84,0.01,2.15-0.57,2.1-2.25c-0.36-14.41-0.66-28.82-0.88-43.23c-0.03-1.73-0.48-2.18-2.23-2.2
		c-21.08-0.23-42.15-0.56-63.23-0.86c-0.42-0.01-0.84,0.04-1.25-0.04c-1.22-0.23-2.25-1.02-2.6-2.05c-0.21-0.62,1.11-0.98,1.72-1.47
		c0.52-0.41,1.1-0.74,1.65-1.13c13.5-9.45,19.77-22.19,18.88-38.86c-1.04-19.49-18.19-34.55-33.17-37.58
		c-6.35-1.29-12.77-1.18-19.16-1.23c-26.24-0.19-52.49-0.15-78.73-0.27c-1.91-0.01-2.5,0.42-2.5,2.44
		c0.06,42.07,0.06,84.14,0.01,126.21c0,1.88,0.36,2.52,2.41,2.5c16.08-0.1,32.16-0.08,48.24-0.01c1.87,0.01,2.52-0.35,2.5-2.4
		C518.81,183.3,518.88,173.22,518.88,162.54z M190.49,333.7c16.47,0,32.45-0.02,48.43,0.04c1.41,0,1.6-0.79,1.89-1.77
		c1.35-4.63,2.76-9.23,4.06-13.87c0.39-1.37,0.95-1.96,2.51-1.93c14.4,0.21,28.81,0.33,43.22,0.43c1.27,0.01,1.88,0.33,2.26,1.65
		c1.34,4.62,2.94,9.17,4.26,13.8c0.48,1.69,1.25,2.13,2.95,2.11c15.15-0.18,30.31-0.3,45.46-0.33c2.27,0,1.88-0.86,1.37-2.34
		c-14.76-42.43-29.51-84.87-44.19-127.33c-0.6-1.73-1.39-2.24-3.17-2.23c-20.16,0.12-40.32,0.21-60.47,0.13
		c-2.55-0.01-3.51,0.79-4.3,3.11c-10.71,31.27-21.53,62.5-32.31,93.75C198.56,310.22,194.68,321.52,190.49,333.7z M296.74,195.56
		c0.43,0.08,0.67,0.16,0.9,0.16c15.99,0.01,31.99-0.01,47.98,0.05c1.46,0.01,1.79-0.71,2.12-1.81c1.32-4.37,2.75-8.71,4.01-13.1
		c0.42-1.47,1.12-1.93,2.62-1.9c6.58,0.13,13.15,0.16,19.73,0.19c7.58,0.04,15.16,0.13,22.74,0.03c1.78-0.02,2.42,0.57,2.87,2.19
		c1.25,4.48,2.74,8.89,3.99,13.37c0.4,1.45,0.99,1.95,2.54,1.95c15.16-0.01,30.32,0.03,45.48,0.17c2.21,0.02,2.37-0.5,1.69-2.46
		c-14.71-42.36-29.37-84.74-43.95-127.14c-0.68-1.97-1.46-2.64-3.58-2.63c-20.24,0.09-40.49,0.11-60.73-0.01
		c-2.48-0.01-3.54,0.65-4.36,3.03c-12.34,36.06-24.8,72.08-37.22,108.11C301.31,182.34,299.03,188.92,296.74,195.56z"/>
	<path class="st1" d="M550.39,285.02c-3.16-4.28-6.65-8.28-10.3-12.13c-5.46-5.76-10.85-11.62-13.76-19.13
		c-7.5-19.33,1.53-44.3,26.77-50.03c3.92-0.89,7.9-1.23,11.9-1.24c26.25-0.02,52.49,0.02,78.74-0.07c2.41-0.01,2.83,0.76,2.81,2.94
		c-0.15,13.74-0.21,27.49-0.16,41.23c0.01,1.98-0.64,2.27-2.4,2.26c-18.83-0.09-37.66-0.09-56.49-0.12c-0.89,0-1.78,0-3.03,0
		c1.43,2.63,3.14,4.63,4.76,6.67c5.11,6.47,10.1,13.04,15.43,19.33c13.51,15.92,8.05,35.39-2.06,46.9
		c-8.07,9.2-18.27,12.69-30.18,12.89c-12.24,0.2-24.48,0.48-36.72,0.44c-22.82-0.09-45.65-0.2-68.47-0.35
		c-3.33-0.02-6.66-0.22-9.97-0.49c-3.92-0.31-7.34-2.02-10.54-4.19c-8.57-5.84-15.95-13.08-23.52-20.09
		c-3.22-2.98-6.37-6.04-9.57-9.08c-0.72,0.65-0.42,1.36-0.42,1.96c-0.08,9.91-0.2,19.82-0.13,29.73c0.02,2.16-0.67,2.58-2.68,2.56
		c-15.49-0.14-30.99-0.18-46.48-0.18c-1.97,0-2.8-0.3-2.8-2.68c0.05-31.9-0.03-63.81-0.1-95.71c-0.02-9.99-0.05-19.99-0.2-29.98
		c-0.03-1.98,0.36-2.69,2.54-2.68c28.33,0.08,56.66,0.02,84.98,0.06c22.63,0.03,43.99,19.13,46.02,41.62
		c0.97,10.79-3.13,20.21-10.36,28.21c-3.08,3.41-6.61,6.33-10.41,8.92c-0.51,0.35-1.51,0.55-1.31,1.29
		c0.21,0.77,1.01,1.29,1.89,1.37c2.15,0.19,4.31,0.45,6.47,0.46c18.74,0.12,37.48,0.2,56.23,0.26c3.49,0.01,6.99-0.12,10.48-0.26
		C548.3,285.64,549.37,285.92,550.39,285.02z M405.19,282.31c1.06,0.85,1.72,1.3,2.3,1.84c6.75,6.3,13.49,12.63,20.24,18.93
		c7.24,6.76,14.33,13.7,22.4,19.48c2.44,1.75,4.99,3.38,8.11,3.6c2.99,0.21,5.98,0.41,8.97,0.44c20.07,0.14,40.14,0.27,60.21,0.34
		c14.9,0.05,29.81-0.21,44.71-0.39c11.43-0.14,20.53-4.06,27.04-13.6c5.63-8.25,9.19-21.34-0.45-32.81
		c-4.28-5.1-8.33-10.39-12.46-15.62c-3.3-4.18-6.75-8.25-9.54-12.8c-1.85-3.03-0.9-5.88,0.47-8.76c1.19-2.51,3.39-2.25,5.57-2.24
		c17.83,0.01,35.66-0.02,53.48,0.05c1.6,0.01,2.15-0.29,2.14-1.96c-0.03-8.49-0.02-16.99,0.14-25.48c0.04-2.25-0.53-2.91-2.86-2.9
		c-23.58,0.09-47.15,0.05-70.73,0.07c-2.91,0-5.81,0.25-8.69,0.74c-20.77,3.59-31.06,26.1-20.15,44.12c2.47,4.08,5.65,7.6,8.9,11.07
		c4.49,4.8,8.73,9.81,12.72,15.06c3.32,4.37,0.09,11.9-5.6,11.8c-1.4-0.02-2.81,0.36-4.22,0.39c-23.4,0.5-46.8,0.38-70.19-0.1
		c-2.62-0.05-5.42,0.1-7.78-1.36c-3.79-2.34-6.86-5.51-9.64-8.97c-0.98-1.22-0.67-2.1,0.64-2.78c1.03-0.54,2.03-1.14,3.08-1.65
		c5.95-2.85,11.09-6.83,15.24-11.89c5.06-6.18,7.97-13.37,7.1-21.45c-1.92-17.87-19.65-33.54-38.08-33.64
		c-25.74-0.14-51.48-0.02-77.23-0.07c-1.75,0-2.26,0.46-2.23,2.22c0.14,8.08,0.18,16.15,0.2,24.23c0.07,28.73,0.13,57.47,0.14,86.2
		c0,1.74,0.25,2.42,2.25,2.41c10.41-0.06,20.82,0.02,31.22,0.15c1.78,0.02,2.45-0.34,2.44-2.3c-0.06-8.24,0.08-16.49,0.11-24.73
		C405.21,294.25,405.19,288.54,405.19,282.31z"/>
	<path class="st1" d="M221.04,63.76c24,0,47.99,0.01,71.99,0c7.58,0,15.16,0,22.74-0.12c1.63-0.02,2.07,0.42,2.06,2.06
		c-0.07,13.5-0.08,26.99,0.01,40.49c0.01,1.87-0.63,2.11-2.27,2.1c-17.5-0.06-34.99,0.01-52.49-0.09c-2.1-0.01-2.58,0.52-2.58,2.59
		c0.07,27.41,0.03,54.82,0.1,82.23c0.01,2.09-0.36,2.8-2.67,2.78c-15.08-0.13-30.16-0.1-45.24-0.02c-1.97,0.01-2.44-0.51-2.43-2.45
		c0.07-27.49,0.01-54.99,0.11-82.48c0.01-2.29-0.65-2.66-2.75-2.65c-18.16,0.11-36.32,0.1-54.49,0.15c-0.86,0-2.1-0.49-2.51,0.49
		c-0.35,0.84,0.61,1.65,1.11,2.38c5.25,7.61,11.35,14.58,16.78,22.06c3.08,4.23,6.78,8.15,8.56,13.13
		c4.08,11.36,1.61,22.03-4.6,31.89c-6.82,10.82-16.79,16.55-29.7,16.88c-7.41,0.19-14.81,0.51-22.22,0.52
		c-34.83,0.06-69.66,0.01-104.48,0.07c-2.14,0-2.92-0.35-2.9-2.76c0.13-14.33,0.11-28.66,0.01-42.99c-0.01-2.03,0.6-2.42,2.49-2.42
		c32.66,0.06,65.32,0.04,97.99,0.04c0.58,0,1.17-0.02,1.75,0c0.68,0.02,1.48,0.04,1.8-0.59c0.37-0.71-0.39-1.2-0.8-1.68
		c-5.69-6.63-11.47-13.19-17.07-19.9c-4.53-5.42-8.15-11.26-8.75-18.64c-1.61-19.73,12.28-38.56,31.5-42.32
		c2.03-0.4,4.14-0.5,6.21-0.5c30.91-0.03,61.82-0.02,92.72-0.02C221.04,63.93,221.04,63.84,221.04,63.76z M217.4,71.76
		c0,0.08,0,0.17,0,0.25c-29.16,0-58.32,0.12-87.48-0.06c-10.95-0.07-19.32,4.34-25.4,13.18c-6.26,9.1-10.19,23.25,0.99,35.31
		c0.57,0.61,1.05,1.29,1.59,1.92c5.53,6.44,11.07,12.88,16.61,19.32c2.43,2.82,2.63,5.95,0.78,9.01c-1.76,2.92-4.14,5.01-7.99,5
		c-30.91-0.06-61.82-0.01-92.74-0.08c-2.1-0.01-2.6,0.54-2.57,2.6c0.12,9,0.12,18,0,26.99c-0.03,2.07,0.48,2.59,2.57,2.58
		c29.5-0.08,58.99-0.05,88.49-0.05c9.83,0,19.65,0.01,29.47-0.52c4.74-0.25,9.4-0.75,13.68-3.26c7.2-4.21,11.84-10.39,14.26-18.22
		c2.43-7.88,2.04-15.38-3.47-22.14c-3.57-4.39-6.81-9.04-10.24-13.54c-3.98-5.23-8.27-10.23-11.79-15.8
		c-1.27-2.02-2.12-4.13-1.66-6.6c0.93-5.01,4.09-7.29,10.26-7.3c20.91-0.04,41.83-0.03,62.74-0.13c2.16-0.01,2.89,0.39,2.88,2.76
		c-0.1,27.49-0.04,54.99-0.11,82.48c0,1.84,0.4,2.35,2.3,2.33c9.83-0.11,19.66-0.12,29.49,0.01c2.16,0.03,2.54-0.63,2.54-2.63
		c-0.07-27.41-0.02-54.82-0.1-82.23c-0.01-2.17,0.48-2.75,2.71-2.73c17.33,0.11,34.66,0,51.99,0.12c2.31,0.02,2.68-0.67,2.64-2.76
		c-0.13-6.66-0.02-13.33-0.07-19.99c-0.01-1.89,0.82-4.34-0.37-5.53c-1.2-1.2-3.64-0.26-5.53-0.26
		C275.05,71.76,246.22,71.76,217.4,71.76z"/>
	<path class="st1" d="M149.88,238.27c3.94-11.33,7.71-21.95,11.29-32.63c0.62-1.86,1.42-2.38,3.29-2.37
		c15.66,0.07,31.32,0.04,47.01,0.04c0.22,1.13-0.35,2-0.66,2.9c-14.45,42.11-28.93,84.21-43.32,126.34
		c-0.66,1.94-1.52,2.47-3.5,2.45c-9.41-0.11-18.83-0.14-28.24,0.01c-2.53,0.04-3.68-0.59-4.54-3.14
		c-5.72-17-11.66-33.93-17.56-50.95c-0.95,0.63-0.98,1.68-1.29,2.54c-5.88,16.07-11.77,32.13-17.54,48.24
		c-0.67,1.87-1.5,2.5-3.53,2.47c-9.75-0.13-19.5-0.09-29.24-0.02c-1.55,0.01-2.27-0.4-2.8-1.97
		c-14.37-42.4-28.81-84.78-43.26-127.16c-0.55-1.6-0.38-2.09,1.46-2.08c15.16,0.07,30.33,0.07,45.49-0.01
		c1.72-0.01,2.25,0.75,2.73,2.14c3.73,10.73,7.53,21.45,11.33,32.24c1.09-0.57,1.05-1.6,1.34-2.4c3.53-9.94,7.05-19.88,10.48-29.86
		c0.55-1.6,1.29-2.13,3.01-2.12c14.58,0.08,29.16,0.08,43.74-0.01c1.78-0.01,2.41,0.6,2.93,2.17c3.37,10.08,6.84,20.13,10.28,30.19
		C149.04,236.05,149.34,236.8,149.88,238.27z M113.51,256.98c0.94,0.42,0.85,1.21,1.05,1.8c7.56,21.99,15.12,43.97,22.61,65.99
		c0.54,1.58,1.15,2.26,2.92,2.22c6.25-0.12,12.5-0.1,18.74-0.01c1.61,0.02,2.31-0.51,2.83-2.03c12.7-37.17,25.43-74.33,38.22-111.47
		c0.63-1.82,0.39-2.23-1.55-2.22c-9.5,0.08-18.99,0.07-28.49,0c-1.58-0.01-2.32,0.43-2.84,1.98c-3.7,10.93-7.49,21.83-11.3,32.73
		c-1.75,5.01-3.61,9.98-5.51,15.2c-1.11-1.41-1.47-2.7-1.95-3.93c-5.64-14.48-10.35-29.28-15.37-43.97
		c-0.63-1.84-1.46-2.37-3.34-2.35c-10.5,0.09-20.99,0.1-31.49,0c-2.05-0.02-3.03,0.52-3.74,2.57c-5.25,15.23-10.64,30.41-16.01,45.6
		c-0.25,0.7-0.23,1.6-1.17,2.09c-0.34-0.9-0.64-1.67-0.91-2.44c-5.41-15.18-10.85-30.34-16.17-45.55c-0.6-1.72-1.34-2.29-3.15-2.27
		c-9.25,0.09-18.49,0.08-27.74,0.01c-1.92-0.01-2.66,0.15-1.88,2.41c12.64,36.93,25.2,73.88,37.72,110.85
		c0.54,1.59,1.32,1.96,2.87,1.94c6-0.08,12-0.13,17.99,0.02c1.94,0.05,2.73-0.63,3.35-2.36c5.34-14.85,10.75-29.67,16.15-44.49
		C108.06,271.88,110.78,264.44,113.51,256.98z"/>
	<path class="st1" d="M518.88,162.54c0,10.68-0.07,20.76,0.05,30.84c0.02,2.05-0.62,2.41-2.5,2.4c-16.08-0.07-32.16-0.08-48.24,0.01
		c-2.05,0.01-2.41-0.63-2.41-2.5c0.05-42.07,0.05-84.14-0.01-126.21c0-2.02,0.58-2.44,2.5-2.44c26.24,0.12,52.49,0.07,78.73,0.27
		c6.39,0.05,12.81-0.06,19.16,1.23c14.98,3.03,32.13,18.1,33.17,37.58c0.89,16.67-5.39,29.4-18.88,38.86
		c-0.55,0.38-1.13,0.71-1.65,1.13c-0.62,0.49-1.93,0.85-1.72,1.47c0.35,1.03,1.39,1.82,2.6,2.05c0.4,0.08,0.83,0.03,1.25,0.04
		c21.08,0.3,42.15,0.63,63.23,0.86c1.75,0.02,2.2,0.46,2.23,2.2c0.22,14.41,0.52,28.82,0.88,43.23c0.04,1.68-0.27,2.25-2.1,2.25
		c-20.83-0.07-41.66,0.07-62.49-0.11c-7.31-0.06-14.63-0.09-21.93-0.81c-4.26-0.42-7.76-2.35-11.02-4.82
		c-9.31-7.06-17.72-15.14-26.2-23.15C522.1,165.54,520.65,164.2,518.88,162.54z M510.76,143.76c7.18,6.85,13.84,13.26,20.57,19.59
		c7.4,6.96,14.81,13.91,22.9,20.1c2.93,2.24,6.07,3.65,9.82,3.78c24.4,0.83,48.81,0.36,73.21,0.54c1.6,0.01,1.91-0.49,1.87-1.99
		c-0.24-8.99-0.46-17.99-0.5-26.98c-0.01-2.23-0.7-2.71-2.83-2.73c-19.08-0.22-38.15-0.56-57.22-0.88
		c-0.98-0.02-1.95,0.09-2.86-0.56c-3.88-2.79-7.36-5.98-10.31-9.74c-1.09-1.39-0.94-2.24,0.69-3.07c3.48-1.77,6.85-3.76,10.06-6
		c12.49-8.73,17.36-20.68,14.55-35.58c-2.42-12.84-10.97-20.44-22.55-25.19c-5.87-2.4-12.14-2.06-18.25-2.12
		c-24.57-0.23-49.15-0.16-73.72-0.27c-1.77-0.01-2.41,0.29-2.41,2.27c0.07,36.9,0.06,73.8,0.01,110.71c0,1.82,0.58,2.16,2.25,2.15
		c10.83-0.07,21.66-0.1,32.49,0.02c2.11,0.02,2.37-0.73,2.35-2.53c-0.1-10.99-0.09-21.99-0.12-32.99
		C510.76,149.64,510.76,147,510.76,143.76z"/>
	<path class="st1" d="M190.49,333.7c4.19-12.18,8.07-23.48,11.97-34.78c10.78-31.24,21.6-62.48,32.31-93.75
		c0.79-2.32,1.75-3.12,4.3-3.11c20.16,0.08,40.32-0.01,60.47-0.13c1.78-0.01,2.57,0.5,3.17,2.23
		c14.68,42.46,29.43,84.9,44.19,127.33c0.51,1.47,0.91,2.33-1.37,2.34c-15.16,0.03-30.31,0.15-45.46,0.33
		c-1.7,0.02-2.47-0.42-2.95-2.11c-1.32-4.63-2.92-9.18-4.26-13.8c-0.38-1.32-0.99-1.64-2.26-1.65c-14.41-0.1-28.81-0.22-43.22-0.43
		c-1.57-0.02-2.13,0.56-2.51,1.93c-1.3,4.64-2.71,9.25-4.06,13.87c-0.29,0.98-0.48,1.77-1.89,1.77
		C222.94,333.68,206.96,333.7,190.49,333.7z M319.79,326.12c0-0.06,0-0.11,0-0.17c4.75,0,9.5-0.08,14.24,0.04
		c1.96,0.05,2.42-0.33,1.73-2.3c-12.98-37.15-25.91-74.32-38.79-111.51c-0.6-1.72-1.38-2.25-3.17-2.23
		c-16.65,0.12-33.31,0.19-49.96,0.15c-1.9,0-2.55,0.7-3.08,2.33c-1.77,5.45-3.68,10.85-5.55,16.27
		c-10.86,31.47-21.71,62.94-32.62,94.39c-0.6,1.74-0.52,2.24,1.49,2.24c9.24,0.02,18.48,0.13,27.72,0.33
		c1.87,0.04,2.78-0.38,3.27-2.34c1.09-4.34,2.58-8.59,3.72-12.92c0.47-1.77,1.28-2.26,3.07-2.24c12.49,0.16,24.97,0.2,37.46,0.3
		c5.66,0.04,11.32,0.18,16.98,0.16c1.52-0.01,2.13,0.55,2.54,1.96c1.29,4.47,2.81,8.86,4.07,13.34c0.5,1.78,1.36,2.29,3.15,2.24
		C310.64,326.03,315.22,326.12,319.79,326.12z"/>
	<path class="st1" d="M296.74,195.56c2.29-6.64,4.56-13.22,6.83-19.8c12.43-36.03,24.88-72.05,37.22-108.11
		c0.82-2.39,1.88-3.05,4.36-3.03c20.24,0.12,40.49,0.1,60.73,0.01c2.11-0.01,2.9,0.66,3.58,2.63
		c14.58,42.4,29.24,84.78,43.95,127.14c0.68,1.96,0.53,2.48-1.69,2.46c-15.16-0.14-30.32-0.18-45.48-0.17
		c-1.55,0-2.13-0.5-2.54-1.95c-1.25-4.48-2.74-8.89-3.99-13.37c-0.45-1.61-1.09-2.21-2.87-2.19c-7.58,0.1-15.16,0.01-22.74-0.03
		c-6.58-0.04-13.16-0.06-19.73-0.19c-1.5-0.03-2.2,0.43-2.62,1.9c-1.26,4.39-2.69,8.73-4.01,13.1c-0.33,1.1-0.66,1.82-2.12,1.81
		c-15.99-0.07-31.99-0.04-47.98-0.05C297.41,195.72,297.17,195.64,296.74,195.56z M442.91,188.7c-0.33-1-0.6-1.86-0.89-2.7
		c-3.74-10.83-7.49-21.66-11.23-32.49c-9.06-26.21-18.12-52.43-27.17-78.64c-0.45-1.31-0.81-2.25-2.64-2.24
		c-17.16,0.09-34.32,0.07-51.48,0.02c-1.38,0-2.05,0.37-2.51,1.72c-12.77,37.14-25.57,74.27-38.41,111.39
		c-0.49,1.41-0.6,2.02,1.27,2.01c9.91-0.08,19.83-0.06,29.74,0c1.34,0.01,1.86-0.45,2.22-1.69c1.27-4.39,2.71-8.72,4-13.11
		c0.43-1.48,1.1-2.05,2.75-2.03c10.58,0.14,21.15,0.16,31.73,0.21c7.5,0.04,14.99,0.13,22.49,0.03c1.81-0.03,2.43,0.62,2.86,2.23
		c0.85,3.21,1.88,6.37,2.86,9.55c1.72,5.57,1.73,5.57,7.48,5.7c0.33,0.01,0.66,0.05,1,0.05C425.53,188.7,434.09,188.7,442.91,188.7z
		"/>
	<path class="st2" d="M405.19,282.31c0,6.22,0.02,11.93,0,17.64c-0.04,8.24-0.18,16.49-0.11,24.73c0.01,1.97-0.66,2.32-2.44,2.3
		c-10.41-0.13-20.82-0.21-31.22-0.15c-2,0.01-2.25-0.67-2.25-2.41c0-28.73-0.07-57.47-0.14-86.2c-0.02-8.08-0.06-16.15-0.2-24.23
		c-0.03-1.76,0.48-2.23,2.23-2.22c25.74,0.05,51.48-0.07,77.23,0.07c18.42,0.1,36.15,15.77,38.08,33.64
		c0.87,8.08-2.03,15.27-7.1,21.45c-4.15,5.06-9.28,9.05-15.24,11.89c-1.05,0.5-2.05,1.11-3.08,1.65c-1.31,0.68-1.62,1.56-0.64,2.78
		c2.78,3.46,5.85,6.63,9.64,8.97c2.36,1.46,5.17,1.3,7.78,1.36c23.4,0.48,46.8,0.6,70.19,0.1c1.41-0.03,2.82-0.41,4.22-0.39
		c5.68,0.1,8.92-7.43,5.6-11.8c-3.99-5.25-8.23-10.26-12.72-15.06c-3.25-3.47-6.43-6.99-8.9-11.07
		c-10.92-18.02-0.62-40.54,20.15-44.12c2.88-0.5,5.78-0.74,8.69-0.74c23.58-0.02,47.15,0.02,70.73-0.07c2.33-0.01,2.9,0.65,2.86,2.9
		c-0.17,8.49-0.17,16.99-0.14,25.48c0.01,1.67-0.54,1.96-2.14,1.96c-17.83-0.07-35.66-0.04-53.48-0.05c-2.18,0-4.37-0.26-5.57,2.24
		c-1.37,2.87-2.32,5.73-0.47,8.76c2.79,4.56,6.24,8.63,9.54,12.8c4.13,5.22,8.18,10.52,12.46,15.62
		c9.63,11.47,6.08,24.56,0.45,32.81c-6.51,9.54-15.61,13.46-27.04,13.6c-14.9,0.18-29.81,0.44-44.71,0.39
		c-20.07-0.07-40.14-0.19-60.21-0.34c-2.99-0.02-5.99-0.22-8.97-0.44c-3.12-0.22-5.66-1.85-8.11-3.6
		c-8.08-5.79-15.17-12.73-22.4-19.48c-6.75-6.3-13.49-12.63-20.24-18.93C406.92,283.61,406.26,283.16,405.19,282.31z M423.69,234.8
		c-5.58,0-11.15,0.05-16.73-0.03c-1.55-0.02-1.98,0.46-1.97,1.97c0.06,7.91,0.06,15.82,0,23.73c-0.01,1.52,0.35,2.15,2.02,2.33
		c10.04,1.04,20.1,1.01,30.16,0.57c3.17-0.14,6.28-0.45,9.16-2c5.37-2.89,8.34-8.58,7.33-14.32c-1.03-5.87-6.27-11.29-11.78-11.61
		C435.83,235.09,429.76,235.01,423.69,234.8z"/>
	<path class="st0" d="M217.4,71.76c28.83,0,57.66-0.01,86.48,0.02c1.89,0,4.33-0.94,5.53,0.26c1.18,1.19,0.35,3.64,0.37,5.53
		c0.04,6.66-0.07,13.33,0.07,19.99c0.04,2.09-0.33,2.77-2.64,2.76c-17.33-0.12-34.66-0.02-51.99-0.12
		c-2.23-0.01-2.72,0.56-2.71,2.73c0.08,27.41,0.03,54.82,0.1,82.23c0,2-0.38,2.66-2.54,2.63c-9.83-0.13-19.66-0.12-29.49-0.01
		c-1.9,0.02-2.3-0.49-2.3-2.33c0.06-27.49,0.01-54.99,0.11-82.48c0.01-2.38-0.72-2.78-2.88-2.76c-20.91,0.11-41.83,0.1-62.74,0.13
		c-6.16,0.01-9.32,2.3-10.26,7.3c-0.46,2.47,0.39,4.59,1.66,6.6c3.52,5.57,7.81,10.57,11.79,15.8c3.43,4.5,6.67,9.15,10.24,13.54
		c5.5,6.76,5.9,14.27,3.47,22.14c-2.42,7.83-7.05,14.01-14.26,18.22c-4.28,2.5-8.94,3-13.68,3.26c-9.81,0.53-19.64,0.52-29.47,0.52
		c-29.5,0-58.99-0.03-88.49,0.05c-2.09,0.01-2.6-0.51-2.57-2.58c0.12-9,0.12-18,0-26.99c-0.03-2.06,0.47-2.6,2.57-2.6
		c30.91,0.07,61.82,0.03,92.74,0.08c3.84,0.01,6.23-2.09,7.99-5c1.85-3.06,1.65-6.19-0.78-9.01c-5.54-6.43-11.07-12.87-16.61-19.32
		c-0.54-0.63-1.03-1.32-1.59-1.92c-11.18-12.06-7.24-26.2-0.99-35.31c6.07-8.84,14.44-13.24,25.4-13.18
		c29.16,0.18,58.32,0.06,87.48,0.06C217.4,71.93,217.4,71.85,217.4,71.76z"/>
	<path class="st2" d="M113.51,256.98c-2.73,7.46-5.45,14.9-8.16,22.34c-5.4,14.82-10.82,29.64-16.15,44.49
		c-0.62,1.73-1.4,2.41-3.35,2.36c-5.99-0.16-11.99-0.11-17.99-0.02c-1.55,0.02-2.33-0.35-2.87-1.94
		c-12.52-36.97-25.08-73.92-37.72-110.85c-0.77-2.26-0.04-2.42,1.88-2.41c9.25,0.07,18.49,0.08,27.74-0.01
		c1.81-0.02,2.55,0.55,3.15,2.27c5.32,15.21,10.77,30.37,16.17,45.55c0.28,0.77,0.57,1.54,0.91,2.44c0.94-0.49,0.92-1.39,1.17-2.09
		c5.37-15.19,10.76-30.37,16.01-45.6c0.7-2.05,1.68-2.59,3.74-2.57c10.5,0.1,20.99,0.09,31.49,0c1.88-0.02,2.71,0.51,3.34,2.35
		c5.03,14.69,9.74,29.49,15.37,43.97c0.48,1.23,0.84,2.52,1.95,3.93c1.89-5.22,3.76-10.19,5.51-15.2c3.81-10.9,7.6-21.8,11.3-32.73
		c0.52-1.55,1.26-1.99,2.84-1.98c9.5,0.07,18.99,0.08,28.49,0c1.93-0.02,2.17,0.39,1.55,2.22c-12.79,37.14-25.53,74.3-38.22,111.47
		c-0.52,1.52-1.22,2.05-2.83,2.03c-6.25-0.09-12.5-0.11-18.74,0.01c-1.77,0.03-2.39-0.65-2.92-2.22
		c-7.49-22.01-15.05-44-22.61-65.99C114.36,258.19,114.45,257.41,113.51,256.98z"/>
	<path class="st0" d="M510.76,143.76c0,3.24-0.01,5.88,0,8.51c0.03,11,0.02,21.99,0.12,32.99c0.02,1.8-0.24,2.56-2.35,2.53
		c-10.83-0.13-21.66-0.09-32.49-0.02c-1.68,0.01-2.25-0.32-2.25-2.15c0.06-36.9,0.06-73.8-0.01-110.71c0-1.99,0.64-2.28,2.41-2.27
		c24.57,0.11,49.15,0.05,73.72,0.27c6.11,0.06,12.38-0.28,18.25,2.12c11.59,4.74,20.14,12.35,22.55,25.19
		c2.81,14.9-2.07,26.85-14.55,35.58c-3.21,2.24-6.58,4.23-10.06,6c-1.63,0.83-1.78,1.69-0.69,3.07c2.96,3.76,6.44,6.95,10.31,9.74
		c0.91,0.66,1.88,0.55,2.86,0.56c19.07,0.31,38.15,0.66,57.22,0.88c2.13,0.02,2.82,0.5,2.83,2.73c0.04,8.99,0.26,17.99,0.5,26.98
		c0.04,1.5-0.27,2-1.87,1.99c-24.4-0.18-48.81,0.29-73.21-0.54c-3.74-0.13-6.88-1.54-9.82-3.78c-8.08-6.19-15.5-13.14-22.9-20.1
		C524.6,157.02,517.94,150.6,510.76,143.76z M529.26,124.33c2.83,0,5.66,0.02,8.49-0.01c2.83-0.03,5.67-0.26,8.48-0.12
		c5.85,0.29,11.52-6.26,12.1-11.03c1.17-9.67-4.41-16.34-14.37-16.97c-10.64-0.67-21.3-0.22-31.94-0.4
		c-1.42-0.02-1.84,0.4-1.83,1.82c0.06,8.32,0.06,16.64,0,24.97c-0.01,1.46,0.47,1.79,1.84,1.77
		C517.78,124.29,523.52,124.33,529.26,124.33z"/>
	<path class="st2" d="M319.79,326.12c-4.58,0-9.16-0.09-13.73,0.04c-1.8,0.05-2.65-0.46-3.15-2.24c-1.25-4.47-2.78-8.87-4.07-13.34
		c-0.41-1.41-1.02-1.97-2.54-1.96c-5.66,0.02-11.32-0.12-16.98-0.16c-12.49-0.1-24.98-0.13-37.46-0.3
		c-1.79-0.02-2.61,0.46-3.07,2.24c-1.14,4.33-2.63,8.58-3.72,12.92c-0.49,1.96-1.4,2.38-3.27,2.34c-9.24-0.21-18.48-0.32-27.72-0.33
		c-2.01,0-2.1-0.51-1.49-2.24c10.91-31.45,21.76-62.92,32.62-94.39c1.87-5.42,3.78-10.82,5.55-16.27c0.53-1.63,1.18-2.33,3.08-2.33
		c16.65,0.04,33.31-0.03,49.96-0.15c1.79-0.01,2.58,0.51,3.17,2.23c12.88,37.19,25.81,74.36,38.79,111.51
		c0.69,1.97,0.23,2.35-1.73,2.3c-4.74-0.12-9.49-0.04-14.24-0.04C319.79,326.01,319.79,326.06,319.79,326.12z M269.78,227.2
		c-6.96,19.04-13.68,37.41-20.44,55.89c13.19,0,26.2,0,39.38,0C282.44,264.58,276.22,246.22,269.78,227.2z"/>
	<path class="st0" d="M442.91,188.7c-8.82,0-17.38,0-25.95,0c-0.33,0-0.66-0.04-1-0.05c-5.75-0.13-5.76-0.12-7.48-5.7
		c-0.98-3.18-2.01-6.34-2.86-9.55c-0.42-1.6-1.04-2.25-2.86-2.23c-7.49,0.11-14.99,0.01-22.49-0.03
		c-10.58-0.05-21.15-0.07-31.73-0.21c-1.65-0.02-2.32,0.55-2.75,2.03c-1.28,4.38-2.72,8.72-4,13.11c-0.36,1.24-0.89,1.69-2.22,1.69
		c-9.91-0.06-19.83-0.07-29.74,0c-1.87,0.01-1.76-0.59-1.27-2.01c12.83-37.12,25.64-74.25,38.41-111.39
		c0.46-1.35,1.13-1.72,2.51-1.72c17.16,0.05,34.32,0.07,51.48-0.02c1.83-0.01,2.19,0.93,2.64,2.24
		c9.05,26.22,18.11,52.43,27.17,78.64c3.74,10.83,7.49,21.66,11.23,32.49C442.31,186.85,442.58,187.7,442.91,188.7z M376.66,89.66
		c-0.87,0.15-0.85,0.74-1.01,1.18c-6.52,17.77-12.91,35.58-19.11,53.46c-0.7,2.01,0.2,1.96,1.66,1.96
		c10.57-0.03,21.15-0.02,31.73-0.02c1.88,0,3.75,0,6,0C389.41,127.1,383.03,108.36,376.66,89.66z"/>
	<path class="st1" d="M423.69,234.8c6.07,0.21,12.14,0.28,18.21,0.63c5.51,0.32,10.75,5.74,11.78,11.61
		c1,5.75-1.96,11.43-7.33,14.32c-2.89,1.56-5.99,1.86-9.16,2c-10.07,0.44-20.12,0.47-30.16-0.57c-1.68-0.17-2.04-0.8-2.02-2.33
		c0.06-7.91,0.06-15.82,0-23.73c-0.01-1.51,0.42-2,1.97-1.97C412.54,234.86,418.11,234.8,423.69,234.8z M427.45,243.24
		c0-0.09,0-0.18,0-0.27c-4.16,0-8.33,0.07-12.49-0.03c-1.56-0.04-2.02,0.46-1.96,1.99c0.11,2.74,0.17,5.51-0.02,8.24
		c-0.13,1.85,0.7,2.27,2.24,2.28c5.83,0.04,11.65,0.16,17.48,0.14c2.41-0.01,4.83-0.16,7.22-0.45c3.71-0.44,6.08-3.03,5.89-6.2
		c-0.2-3.27-2.72-5.6-6.37-5.68C435.44,243.17,431.45,243.24,427.45,243.24z"/>
	<path class="st1" d="M529.26,124.33c-5.74,0-11.49-0.04-17.23,0.03c-1.37,0.02-1.85-0.31-1.84-1.77c0.07-8.32,0.06-16.64,0-24.97
		c-0.01-1.42,0.4-1.84,1.83-1.82c10.65,0.18,21.3-0.27,31.94,0.4c9.96,0.63,15.54,7.3,14.37,16.97c-0.58,4.77-6.25,11.32-12.1,11.03
		c-2.82-0.14-5.66,0.09-8.48,0.12C534.92,124.35,532.09,124.33,529.26,124.33z M532.56,116.33c0-0.03,0-0.07,0-0.1
		c4.25,0,8.49,0.06,12.74-0.02c3.04-0.06,5.23-2.46,5.21-5.5c-0.04-4.19-1.97-6.07-6.78-6.51c-7.98-0.73-15.98-0.2-23.96-0.39
		c-1.2-0.03-1.59,0.37-1.57,1.56c0.07,3,0.14,6-0.02,8.99c-0.09,1.77,0.62,2.02,2.14,1.99C524.4,116.27,528.48,116.33,532.56,116.33
		z"/>
	<path class="st1" d="M269.78,227.2c6.44,19.02,12.66,37.38,18.94,55.89c-13.17,0-26.18,0-39.38,0
		C256.1,264.61,262.81,246.24,269.78,227.2z M269.48,251.34c-3.02,8.26-5.82,15.93-8.69,23.79c5.27,0,10.18-0.02,15.09,0.02
		c1.21,0.01,1.67-0.22,1.21-1.55C274.59,266.39,272.15,259.15,269.48,251.34z"/>
	<path class="st1" d="M376.66,89.66c6.37,18.71,12.74,37.44,19.26,56.59c-2.24,0-4.12,0-6,0c-10.58,0-21.15-0.01-31.73,0.02
		c-1.46,0-2.36,0.05-1.66-1.96c6.2-17.88,12.59-35.7,19.11-53.46C375.81,90.4,375.79,89.81,376.66,89.66z M376.14,112.89
		c-3.14,8.83-6.04,16.99-8.97,25.22c5.98,0,11.67,0,17.54,0C381.89,129.81,379.12,121.67,376.14,112.89z"/>
	<path class="st2" d="M427.45,243.24c3.99,0,7.99-0.07,11.98,0.02c3.65,0.08,6.17,2.41,6.37,5.68c0.2,3.17-2.18,5.76-5.89,6.2
		c-2.39,0.28-4.81,0.44-7.22,0.45c-5.83,0.01-11.65-0.1-17.48-0.14c-1.54-0.01-2.37-0.43-2.24-2.28c0.19-2.74,0.13-5.5,0.02-8.24
		c-0.06-1.53,0.4-2.03,1.96-1.99c4.16,0.1,8.33,0.03,12.49,0.03C427.45,243.06,427.45,243.15,427.45,243.24z"/>
	<path class="st2" d="M532.56,116.33c-4.08,0-8.16-0.06-12.24,0.03c-1.52,0.03-2.23-0.22-2.14-1.99c0.16-2.99,0.09-5.99,0.02-8.99
		c-0.03-1.19,0.36-1.59,1.57-1.56c7.99,0.18,15.99-0.34,23.96,0.39c4.81,0.44,6.74,2.31,6.78,6.51c0.03,3.04-2.16,5.45-5.21,5.5
		c-4.24,0.08-8.49,0.02-12.74,0.02C532.56,116.27,532.56,116.3,532.56,116.33z"/>
	<path class="st2" d="M269.48,251.34c2.66,7.81,5.11,15.04,7.61,22.26c0.46,1.33,0,1.56-1.21,1.55c-4.91-0.04-9.82-0.02-15.09-0.02
		C263.66,267.27,266.46,259.6,269.48,251.34z"/>
	<path class="st2" d="M376.14,112.89c2.99,8.78,5.75,16.92,8.57,25.22c-5.87,0-11.56,0-17.54,0
		C370.1,129.88,373,121.71,376.14,112.89z"/>
</g>
</svg>
