<?xml version="1.0" encoding="utf-8"?>
<!-- Generator: Adobe Illustrator 26.5.0, SVG Export Plug-In . SVG Version: 6.00 Build 0)  -->
<svg version="1.1" id="Layer_1" xmlns="http://www.w3.org/2000/svg" xmlns:xlink="http://www.w3.org/1999/xlink" x="0px" y="0px"
	 viewBox="0 0 224 225.02" style="enable-background:new 0 0 224 225.02;" xml:space="preserve">
<style type="text/css">
	.st0{fill:#54A7FF;}
	.st1{fill:#FEFEFE;}
	.st2{fill:#F5CC47;}
</style>
<g>
	<path class="st0" d="M111.7,216.05c-27,0-54-0.01-81,0.01c-4.35,0-8.27-1.36-11.85-3.72c-6.32-4.16-9.74-10.12-10.72-17.56
		c-0.09-0.69-0.05-1.39-0.05-2.09c0-53.49-0.01-106.97,0.01-160.46c0-4.36,1.28-8.38,3.57-12.08c2.81-4.54,6.77-7.74,11.73-9.66
		c2.53-0.98,5.18-1.53,7.93-1.52c53.54,0,107.08-0.01,160.61,0.02c5.05,0,9.61,1.65,13.66,4.68c4.69,3.51,7.68,8.13,9.01,13.82
		c0.36,1.56,0.58,3.14,0.58,4.75c-0.01,53.59,0.01,107.18-0.03,160.77c0,5.82-2.14,10.92-6.01,15.27c-3.8,4.27-8.56,6.78-14.18,7.69
		c-0.77,0.12-1.54,0.09-2.32,0.09C165.65,216.05,138.67,216.05,111.7,216.05z M164.87,154.71c0.05-0.13,0.1-0.27,0.15-0.4
		c0.2,0.19,0.43,0.35,0.59,0.6c0.49,0.75,0.97,1.52,1.54,2.21c1.05,1.29,3.04,1.52,4.38,0.52c1.43-1.06,1.68-2.8,0.96-4.27
		c-0.44-0.89-1.05-1.7-1.6-2.54c-1.89-2.9-3.78-5.8-5.68-8.7c-0.16-0.25-0.3-0.53-0.65-0.59c-0.75-2.08-1.54-4.13-2.68-6.05
		c-0.33-0.55-0.77-1.03-0.98-1.65c3.86-3.13,6.86-6.94,9.05-11.41c2.27-4.61,3.37-9.5,3.48-14.61c0.06-3.02-0.38-6-1.13-8.94
		c-0.82-3.25-2.13-6.29-3.85-9.15c-2.05-3.41-4.66-6.35-7.75-8.86c-2.76-2.23-5.79-4.02-9.11-5.29c-2.8-1.07-5.68-1.74-8.67-2.11
		c-4.53-0.56-8.94-0.06-13.3,1.15c-3.47,0.97-6.67,2.54-9.65,4.55c-2.99,2.02-5.6,4.47-7.8,7.33c-1.72,2.23-3.21,4.6-4.26,7.23
		c-0.2-0.03-0.41-0.03-0.61-0.08c-2.67-0.67-5.36-0.92-8.12-0.8c-4.15,0.17-8.06,1.24-11.65,3.27c-6.79,3.84-11.25,9.55-13.19,17.15
		c-0.14,0.54-0.33,0.78-0.88,0.48c-0.13-0.07-0.29-0.1-0.43-0.16c-4.27-1.72-8.69-2.49-13.29-2.31c-4.31,0.17-8.4,1.13-12.32,2.93
		c-5.11,2.35-9.36,5.76-12.61,10.32c-6.15,8.61-7.73,18.11-4.93,28.29c1.96,7.11,6.04,12.82,12,17.15
		c5.02,3.64,10.66,5.56,16.83,5.91c2.19,0.12,4.39,0.03,6.58,0.03c25.14,0,50.28,0,75.42,0.01c1.69,0,3.34-0.17,4.96-0.63
		c2.92-0.83,5.75-1.91,8.06-3.95c2.48-2.19,4.73-4.61,6.65-7.31c2.03-2.86,3.66-5.91,4.47-9.35L164.87,154.71z M158.97,75.79
		c1.33,0.05,2.26-0.59,2.9-1.7c0.38-0.67,0.76-1.34,1.14-2.01c2.07-3.73,4.15-7.46,6.21-11.2c0.77-1.39,0.2-3.49-1.1-4.25
		c-1.59-0.93-3.6-0.52-4.47,1.01c-2.53,4.48-5.04,8.98-7.5,13.5C154.98,73.28,156.54,75.78,158.97,75.79z M171.53,128.12
		c0.04,1.05,0.63,2.05,1.77,2.7c1.57,0.88,3.16,1.73,4.73,2.6c2.76,1.54,5.51,3.09,8.28,4.62c0.64,0.35,1.34,0.58,2.08,0.44
		c1.59-0.3,2.65-1.3,2.83-2.78c0.18-1.46-0.51-2.58-1.74-3.28c-4.36-2.47-8.73-4.93-13.14-7.32
		C174.16,123.92,171.55,125.47,171.53,128.12z M189.26,77.84c-0.01-0.41-0.01-0.82-0.18-1.21c-0.9-2.07-3.04-2.7-5-1.43
		c-4.15,2.67-8.3,5.36-12.44,8.05c-1.55,1-1.98,3.04-0.95,4.55c0.9,1.33,2.73,2,4.41,0.91c1.16-0.76,2.33-1.51,3.5-2.26
		c3.11-2.02,6.22-4.02,9.32-6.06C188.8,79.8,189.27,78.94,189.26,77.84z M108.9,58.11c-1.32,0.02-2.25,0.57-2.87,1.64
		c-0.64,1.11-0.56,2.22,0.12,3.28c1.51,2.36,3.04,4.71,4.56,7.07c1.26,1.94,2.52,3.89,3.79,5.82c0.64,0.97,1.67,1.47,2.71,1.35
		c2.74-0.32,3.93-3.01,2.51-5.13c-1.2-1.8-2.35-3.63-3.53-5.44c-1.59-2.44-3.12-4.91-4.79-7.3
		C110.76,58.48,109.87,58.17,108.9,58.11z M106.85,88.3c0.08-1.18-0.5-2.06-1.52-2.7c-0.5-0.31-1.02-0.58-1.53-0.87
		c-2.05-1.13-4.1-2.26-6.14-3.4c-1.95-1.08-3.88-2.21-5.86-3.24c-1.55-0.81-3.3-0.14-4.16,1.35c-0.86,1.51-0.17,3.62,1.18,4.3
		c0.5,0.26,0.97,0.58,1.47,0.85c3.96,2.2,7.9,4.41,11.88,6.57C104.36,92.36,106.86,90.83,106.85,88.3z M136.05,59.84
		C136.05,59.84,136.05,59.84,136.05,59.84c0,2.55,0.06,5.11-0.02,7.66c-0.05,1.75,1.71,3.26,3.19,3.21
		c1.81-0.05,3.22-1.41,3.22-3.25c0.02-5.05,0.01-10.11,0.01-15.16c0-0.39-0.05-0.77-0.2-1.13c-0.65-1.52-2.16-2.37-3.77-2
		c-1.27,0.3-2.46,1.44-2.44,3.17C136.06,54.84,136.05,57.34,136.05,59.84z M187.4,111.33C187.4,111.33,187.4,111.33,187.4,111.33
		c2.53,0.01,5.05-0.02,7.58,0.02c1.97,0.03,3.31-1.41,3.3-3.17c0-1.74-1.1-3.23-3.22-3.27c-5.05-0.08-10.11-0.05-15.16-0.01
		c-1.59,0.01-3.31,1.15-3.16,3.42c0.12,1.78,1.31,2.98,3.23,3C182.45,111.34,184.92,111.33,187.4,111.33z"/>
	<path class="st1" d="M164.87,154.7c-0.81,3.44-2.43,6.49-4.47,9.35c-1.92,2.7-4.17,5.12-6.65,7.31c-2.31,2.04-5.14,3.11-8.06,3.95
		c-1.62,0.46-3.28,0.63-4.96,0.63c-25.14-0.01-50.28-0.01-75.42-0.01c-2.19,0-4.39,0.09-6.58-0.03c-6.17-0.35-11.82-2.27-16.83-5.91
		c-5.96-4.33-10.04-10.04-12-17.15c-2.8-10.18-1.22-19.68,4.93-28.29c3.25-4.55,7.5-7.97,12.61-10.32c3.92-1.8,8.01-2.76,12.32-2.93
		c4.61-0.18,9.03,0.58,13.29,2.31c0.14,0.06,0.3,0.09,0.43,0.16c0.55,0.3,0.75,0.06,0.88-0.48c1.94-7.6,6.41-13.31,13.19-17.15
		c3.59-2.03,7.49-3.1,11.65-3.27c2.76-0.11,5.45,0.14,8.12,0.8c0.2,0.05,0.41,0.05,0.61,0.08c0.4,0.3,0.89,0.4,1.35,0.56
		c5.93,2.06,10.64,5.74,13.99,11c3.57,5.6,4.91,11.77,3.93,18.39c-0.05,0.33-0.19,0.75,0.05,0.97c0.26,0.23,0.62-0.05,0.91-0.18
		c2.86-1.23,5.85-1.97,8.96-2.13c3.02-0.15,6,0.11,8.94,0.97c4.26,1.24,7.98,3.38,11.21,6.41c1.34,1.26,2.39,2.76,3.63,4.1
		c0.21,0.62,0.65,1.1,0.98,1.65c1.13,1.91,1.93,3.97,2.68,6.04c0.03,0.28,0.04,0.56,0.1,0.84c0.47,2.27,0.84,4.55,0.84,6.87
		c0,1.7-0.37,3.37-0.48,5.06c-0.05,0.13-0.1,0.27-0.15,0.4C164.87,154.71,164.87,154.7,164.87,154.7z"/>
	<path class="st2" d="M160.91,133.84c-1.24-1.34-2.29-2.84-3.63-4.1c-3.23-3.03-6.95-5.17-11.21-6.41
		c-2.93-0.85-5.91-1.12-8.94-0.97c-3.11,0.16-6.1,0.89-8.96,2.13c-0.29,0.13-0.65,0.41-0.91,0.18c-0.24-0.21-0.1-0.64-0.05-0.97
		c0.98-6.62-0.36-12.78-3.93-18.39c-3.35-5.27-8.06-8.94-13.99-11c-0.46-0.16-0.95-0.25-1.35-0.56c1.05-2.63,2.55-5,4.26-7.23
		c2.2-2.86,4.8-5.31,7.8-7.33c2.98-2.02,6.18-3.59,9.65-4.55c4.35-1.21,8.77-1.71,13.3-1.15c2.99,0.37,5.87,1.03,8.67,2.11
		c3.32,1.27,6.35,3.06,9.11,5.29c3.09,2.5,5.7,5.45,7.75,8.86c1.72,2.86,3.02,5.9,3.85,9.15c0.75,2.94,1.19,5.92,1.13,8.94
		c-0.1,5.11-1.21,9.99-3.48,14.61C167.77,126.9,164.78,130.71,160.91,133.84z"/>
	<path class="st2" d="M158.97,75.79c-2.42-0.01-3.99-2.52-2.83-4.65c2.46-4.52,4.97-9.02,7.5-13.5c0.87-1.54,2.87-1.94,4.47-1.01
		c1.3,0.76,1.87,2.85,1.1,4.25c-2.06,3.74-4.14,7.47-6.21,11.2c-0.37,0.67-0.75,1.35-1.14,2.01
		C161.22,75.21,160.3,75.85,158.97,75.79z"/>
	<path class="st2" d="M171.53,128.12c0.02-2.65,2.63-4.2,4.81-3.01c4.41,2.39,8.78,4.85,13.14,7.32c1.23,0.7,1.92,1.82,1.74,3.28
		c-0.18,1.48-1.23,2.48-2.83,2.78c-0.73,0.14-1.44-0.09-2.08-0.44c-2.77-1.53-5.52-3.09-8.28-4.62c-1.57-0.88-3.16-1.72-4.73-2.6
		C172.16,130.17,171.58,129.17,171.53,128.12z"/>
	<path class="st2" d="M189.26,77.84c0.01,1.1-0.46,1.95-1.36,2.54c-3.1,2.03-6.21,4.04-9.32,6.06c-1.16,0.76-2.34,1.5-3.5,2.26
		c-1.67,1.1-3.51,0.42-4.41-0.91c-1.03-1.51-0.6-3.55,0.95-4.55c4.14-2.69,8.29-5.37,12.44-8.05c1.97-1.27,4.1-0.64,5,1.43
		C189.25,77.03,189.25,77.43,189.26,77.84z"/>
	<path class="st2" d="M108.9,58.11c0.97,0.05,1.86,0.37,2.51,1.29c1.67,2.39,3.2,4.86,4.79,7.3c1.18,1.81,2.33,3.65,3.53,5.44
		c1.43,2.13,0.24,4.82-2.51,5.13c-1.04,0.12-2.07-0.38-2.71-1.35c-1.27-1.94-2.53-3.88-3.79-5.82c-1.52-2.35-3.05-4.71-4.56-7.07
		c-0.68-1.06-0.76-2.17-0.12-3.28C106.64,58.68,107.58,58.14,108.9,58.11z"/>
	<path class="st2" d="M106.85,88.3c0,2.53-2.49,4.06-4.69,2.87c-3.98-2.16-7.92-4.37-11.88-6.57c-0.49-0.27-0.96-0.59-1.47-0.85
		c-1.35-0.68-2.04-2.79-1.18-4.3c0.86-1.5,2.61-2.16,4.16-1.35c1.98,1.03,3.91,2.16,5.86,3.24c2.05,1.14,4.1,2.26,6.14,3.4
		c0.51,0.28,1.04,0.56,1.53,0.87C106.35,86.24,106.94,87.12,106.85,88.3z"/>
	<path class="st2" d="M136.05,59.84c0-2.5,0.02-5-0.01-7.5c-0.01-1.72,1.17-2.87,2.44-3.17c1.61-0.37,3.12,0.48,3.77,2
		c0.16,0.36,0.2,0.74,0.2,1.13c-0.01,5.05,0,10.11-0.01,15.16c-0.01,1.84-1.41,3.2-3.22,3.25c-1.48,0.04-3.24-1.46-3.19-3.21
		C136.11,64.95,136.05,62.39,136.05,59.84C136.05,59.84,136.05,59.84,136.05,59.84z"/>
	<path class="st2" d="M187.4,111.33c-2.48,0-4.95,0.02-7.43,0c-1.92-0.02-3.11-1.22-3.23-3c-0.15-2.27,1.57-3.41,3.16-3.42
		c5.05-0.05,10.11-0.07,15.16,0.01c2.12,0.03,3.22,1.52,3.22,3.27c0,1.76-1.34,3.19-3.3,3.17
		C192.45,111.31,189.92,111.34,187.4,111.33C187.4,111.33,187.4,111.33,187.4,111.33z"/>
	<path class="st2" d="M165.02,154.3c0.11-1.69,0.48-3.36,0.48-5.06c0-2.33-0.36-4.6-0.84-6.87c-0.06-0.27-0.07-0.56-0.1-0.84
		c0.34,0.06,0.48,0.34,0.65,0.59c1.89,2.9,3.79,5.8,5.68,8.7c0.55,0.84,1.16,1.65,1.6,2.54c0.72,1.47,0.47,3.21-0.96,4.27
		c-1.34,1-3.33,0.77-4.38-0.52c-0.57-0.7-1.05-1.46-1.54-2.21C165.44,154.65,165.22,154.5,165.02,154.3z"/>
	<path class="st2" d="M164.87,154.7c0,0-0.01,0.01-0.01,0.01S164.87,154.7,164.87,154.7z"/>
</g>
</svg>
